<svg width="48" height="48" viewBox="0 0 48 48" fill="none" xmlns="http://www.w3.org/2000/svg">
<path d="M37.5 19.5C37.5 15.9196 36.0777 12.4858 33.5459 9.95406C31.0142 7.42232 27.5804 6 24 6C20.4196 6 16.9858 7.42232 14.4541 9.95406C11.9223 12.4858 10.5 15.9196 10.5 19.5C10.5 25.038 14.931 32.256 24 40.902C33.069 32.256 37.5 25.038 37.5 19.5ZM24 45C12.999 35.001 7.5 26.499 7.5 19.5C7.5 15.1239 9.23839 10.9271 12.3327 7.83274C15.4271 4.73839 19.6239 3 24 3C28.3761 3 32.5729 4.73839 35.6673 7.83274C38.7616 10.9271 40.5 15.1239 40.5 19.5C40.5 26.499 35.001 35.001 24 45Z" fill="#000"/>
<path d="M24 24C25.1935 24 26.3381 23.5259 27.182 22.682C28.0259 21.8381 28.5 20.6935 28.5 19.5C28.5 18.3065 28.0259 17.1619 27.182 16.318C26.3381 15.4741 25.1935 15 24 15C22.8065 15 21.6619 15.4741 20.818 16.318C19.9741 17.1619 19.5 18.3065 19.5 19.5C19.5 20.6935 19.9741 21.8381 20.818 22.682C21.6619 23.5259 22.8065 24 24 24V24ZM24 27C22.0109 27 20.1032 26.2098 18.6967 24.8033C17.2902 23.3968 16.5 21.4891 16.5 19.5C16.5 17.5109 17.2902 15.6032 18.6967 14.1967C20.1032 12.7902 22.0109 12 24 12C25.9891 12 27.8968 12.7902 29.3033 14.1967C30.7098 15.6032 31.5 17.5109 31.5 19.5C31.5 21.4891 30.7098 23.3968 29.3033 24.8033C27.8968 26.2098 25.9891 27 24 27Z" fill="#000"/>
</svg>
