<?xml version="1.0" encoding="utf-8"?>
<!-- Generator: Adobe Illustrator 26.0.0, SVG Export Plug-In . SVG Version: 6.00 Build 0)  -->
<svg version="1.1" xmlns="http://www.w3.org/2000/svg" xmlns:xlink="http://www.w3.org/1999/xlink" x="0px" y="0px"
	 viewBox="0 0 442.33 587.02" style="enable-background:new 0 0 442.33 587.02;" xml:space="preserve">
<style type="text/css">
	.st0{fill:#E0B500;}
	.st1{opacity:0.2;}
	.st2{fill:#FFFFFF;}
	.st3{fill:#DD9226;}
	.st4{fill:none;stroke:#000000;stroke-width:2;stroke-miterlimit:10;}
	.st5{fill:#E23737;}
	.st6{opacity:0.7;fill:#DD9226;}
	.st7{fill:#E23737;stroke:#000000;stroke-width:1.5;stroke-miterlimit:10;}
	.st8{fill:#E0B500;stroke:#000000;stroke-width:1.5;stroke-linecap:round;stroke-miterlimit:10;}
</style>
<g id="Vector">
	<path d="M63.1,276.52c-4.12,0-8.09-2.13-10.36-5.55c-2.19-3.3-2.52-7.35-0.93-11.1c19.6-45.18,46.7-88.23,80.54-127.96
		c35.38-41.53,77.37-78.49,124.79-109.83l2.45-1.62l1.81,2.31c46.89,59.9,81.54,124.92,102.97,193.26l1.48,4.71l-4.9-0.61
		c-20.43-2.54-41.15-3.82-61.57-3.82c-81.41,0-160.99,20.26-230.13,58.59C67.32,275.98,65.25,276.52,63.1,276.52z"/>
	<path class="st0" d="M55.41,260.56C93.55,172.63,162.64,88.24,259.57,24.18c47.5,60.68,81.73,126.22,102.44,192.25
		c-107.51-13.35-209.95,8.75-293.64,55.15C60.89,275.75,52.02,268.54,55.41,260.56z"/>
	<path class="st1" d="M362.01,216.43c-0.29-0.04-0.58-0.07-0.87-0.1c-1.27-4.04-2.6-8.09-3.97-12.12c-8.24-0.9-16.44-1.6-24.6-2.08
		c-17.41-58.92-48.72-115.4-91.6-165.15c6.09-4.35,12.28-8.61,18.61-12.79C307.07,84.86,341.3,150.4,362.01,216.43z"/>
	<path class="st2" d="M263.76,31.02c-1.61-2.1-3.22-4.2-4.86-6.29c-57.82,38.21-105.73,83.66-143.08,132.78
		C155.66,110.36,205.22,67.17,263.76,31.02z"/>
	<path class="st1" d="M361.35,216.97c-107.51-13.34-209.95,8.75-293.64,55.15c-7.48,4.18-16.35-3.04-12.97-11.01
		c0.9-2.07,1.81-4.12,2.74-6.19c1.45,5.16,7.81,8.41,13.4,5.28c75.35-41.78,165.91-63.84,261.68-58.08
		c8.17,0.48,16.37,1.18,24.6,2.08c1.37,4.04,2.7,8.08,3.97,12.12C361.21,216.54,361.28,216.76,361.35,216.97z"/>
	<g>
		<path d="M357.17,204.21c-24.47-1.19-48.9-1.97-73.38-1.2c-14.63,0.27-29.4,1.44-44.02,2.22
			C278.43,198.23,318.39,197.85,357.17,204.21L357.17,204.21z"/>
	</g>
	<path d="M368.08,228.26c-8.43,0-15.65-5.74-17.56-13.96c-15.35-66.02-49.79-129.67-99.59-184.09c-6.71-7.34-6.21-18.77,1.13-25.48
		C255.4,1.68,259.72,0,264.24,0c5.05,0,9.9,2.14,13.31,5.86c53.98,58.98,91.37,128.23,108.12,200.27c2.25,9.69-3.8,19.4-13.48,21.65
		C370.84,228.1,369.46,228.26,368.08,228.26z"/>
	<path class="st3" d="M371.47,224.69c-1.14,0.26-2.26,0.39-3.38,0.39c-5.34,0-10.26-2.89-12.89-7.48c-0.7-1.22-1.24-2.57-1.57-4.01
		c-15.47-66.55-50.17-130.7-100.34-185.51c-5.54-6.05-5.12-15.45,0.93-21c6.05-5.54,15.45-5.12,21,0.93
		c52.84,57.73,89.66,125.37,106.63,195.76c0.25,1.02,0.49,2.06,0.73,3.08C384.43,214.85,379.46,222.83,371.47,224.69z"/>
	<path d="M220.95,124.44c-3.9,0-7.84-1.38-12.04-4.21c-7.88-5.32-15.5-15.07-19.89-25.44c-5.06-11.95-5.11-22.58-0.14-29.94
		c4.82-7.14,14.34-11.07,26.8-11.07c11.59,0,23.88,3.43,32.06,8.96c16.66,11.25,8.46,26.39-1.36,40.94
		C239.28,114.18,231.47,124.44,220.95,124.44z"/>
	<path d="M118,215.38c-3.98,0-8.36-0.56-11.73-1.06c-14.02-2.04-27.52-5.39-25.16-21.56c2-13.71,15.85-34.04,30.9-34.04
		c0.78,0,1.57,0.06,2.34,0.17c15.81,2.3,24.36,27.03,22.19,41.95C134.63,213.88,125.05,215.38,118,215.38z"/>
	<path d="M180.32,215.38c-5.19,0-11.73-3.92-16.66-10c-5.47-6.74-7.78-14.57-6.32-21.48c4.06-19.35,18.3-22.24,26.43-22.24
		c6.69,0,18.62,2.62,24.06,9.83c2.84,3.76,3.55,8.2,2.13,13.18c-4.05,14.18-18.2,27.15-26.56,30.2
		C182.45,215.21,181.42,215.38,180.32,215.38z"/>
	<path d="M255.97,195.71c-6.44,0-10.78-2.03-13.26-6.21c-3.31-5.56-1.06-14.32,6.36-24.66c6.15-8.59,15.18-17.14,22.98-21.79
		c4.48-2.67,8.38-3.97,11.93-3.97c8.83,0,13.85,8.41,17.87,15.17c4.54,7.63,9.16,16.35,6.39,23.33c-1.55,3.9-5.28,6.72-11.09,8.38
		c-3.3,0.94-6.52,1.89-9.64,2.82C274.96,192.5,264.13,195.71,255.97,195.71z"/>
	<g>
		<path d="M151.01,225.27c-20.08,8.15-40.05,16.4-59.57,25.79c-2.92,1.38-8.78,4.23-11.67,5.67c0,0-5.81,2.9-5.81,2.9
			c-4.16,2.41-8.61,3.72-12.85,0.69c-1.88-1.28-3.18-3.28-3.64-5.4c1.51,4.13,6.05,6.5,9.98,5.68c2.08-0.38,3.75-1.65,5.57-2.69
			c5.61-3.33,11.36-6.42,17.17-9.39C109.62,238.77,129.95,230.67,151.01,225.27L151.01,225.27z"/>
	</g>
	<path class="st1" d="M381.37,216.89c0.01,0,0.01-0.01,0.02-0.01c-0.08,0.16-0.17,0.32-0.25,0.48c-0.06,0.1-0.12,0.2-0.17,0.3
		c-0.12,0.21-0.24,0.41-0.37,0.61c-0.14,0.21-0.29,0.43-0.43,0.64c0,0-0.02,0.01-0.02,0.02c-0.15,0.21-0.31,0.41-0.47,0.61
		c-0.02,0.02-0.02,0.03-0.04,0.05c-0.16,0.2-0.33,0.39-0.5,0.58c-0.17,0.2-0.35,0.39-0.53,0.57c-0.02,0.01-0.02,0.02-0.03,0.03
		c-0.18,0.18-0.37,0.36-0.57,0.53c-0.17,0.15-0.33,0.29-0.51,0.44c-0.14,0.12-0.29,0.23-0.43,0.34c-0.13,0.1-0.25,0.19-0.38,0.28
		c-0.38,0.26-0.77,0.52-1.18,0.75c-0.12,0.07-0.24,0.14-0.37,0.21c-0.68,0.37-1.39,0.68-2.13,0.93c-0.24,0.09-0.48,0.17-0.72,0.24
		c-0.27,0.08-0.54,0.15-0.82,0.21h-0.01c-1.13,0.26-2.26,0.39-3.38,0.39c-0.01,0-0.01,0-0.02,0c-0.21,0-0.41-0.01-0.61-0.02
		c-0.21-0.01-0.42-0.02-0.63-0.04c-0.16-0.01-0.31-0.02-0.46-0.05c-0.09-0.01-0.17-0.02-0.25-0.03c-0.17-0.02-0.35-0.05-0.52-0.08
		c-0.21-0.03-0.41-0.07-0.61-0.12c-0.2-0.04-0.4-0.09-0.6-0.14c-0.2-0.05-0.4-0.1-0.6-0.17c-1.77-0.53-3.42-1.4-4.86-2.53
		c-0.22-0.17-0.44-0.35-0.64-0.54c-0.24-0.21-0.48-0.43-0.7-0.65c-0.02-0.01-0.02-0.02-0.03-0.03c-0.21-0.21-0.42-0.44-0.62-0.67
		c-0.02-0.02-0.04-0.04-0.06-0.06c-0.19-0.21-0.37-0.44-0.55-0.66c-0.02-0.02-0.03-0.04-0.04-0.06c-0.2-0.25-0.39-0.52-0.56-0.79
		c-0.18-0.27-0.36-0.55-0.52-0.83l-0.01-0.01c-0.19-3.13,0.99-6.22,3.15-8.81c2.53-3.03,6.41-5.38,11.04-6.34
		c4.54-0.94,8.95-0.37,12.45,1.32c0.25,1.02,0.49,2.06,0.73,3.08C383.39,210.38,382.87,213.89,381.37,216.89z"/>
	<path class="st1" d="M355.2,217.6c-0.7-1.22-1.24-2.57-1.57-4.01c-15.48-66.55-50.17-130.7-100.34-185.51
		c-3.38-3.7-4.54-8.64-3.55-13.2c53.15,56.63,90.51,123.06,108.13,192.37c0.14,0.53,0.29,1.05,0.48,1.55
		C356.18,211.38,355.01,214.47,355.2,217.6z"/>
	<g>
		<path d="M355.19,217.6c-1.25-4.54,1.35-9.54,4.91-12.45c5.92-4.89,15.44-6.07,21.74-1.38c-2.92-0.7-5.76-0.86-8.54-0.59
			C365.19,204.07,356.63,208.89,355.19,217.6L355.19,217.6z"/>
	</g>
	<path class="st5" d="M246.83,64.05c15.15,10.23,8.44,23.58-1.79,38.73s-20.11,26.36-35.26,16.13
		c-15.15-10.23-29.83-38.03-19.6-53.18C200.41,50.58,231.68,53.82,246.83,64.05z"/>
	<path class="st1" d="M246.18,97.66c-11.25,16.66-22.11,28.99-38.78,17.74c-3.63-2.45-7.23-5.82-10.53-9.75
		c3.82,5.47,8.35,10.17,12.93,13.26c15.15,10.23,25.03-0.98,35.26-16.13c5.13-7.6,9.38-14.75,10.42-21.28
		C253.34,86.62,249.98,92.03,246.18,97.66z"/>
	<path class="st5" d="M296.72,184.44c-25.38,7.23-46.05,15.3-52.64,4.25c-6.59-11.05,13.74-35.31,28.79-44.27s21.04-0.4,27.63,10.65
		C307.08,166.12,313.72,179.59,296.72,184.44z"/>
	<path class="st1" d="M306.34,166.9c0.87,6.04-1.5,11.28-10.9,13.96c-23.53,6.7-43.11,14.1-51.7,7.17c0.11,0.23,0.21,0.45,0.34,0.67
		c6.59,11.05,27.26,2.98,52.64-4.25C307.86,181.26,308.84,174.38,306.34,166.9z"/>
	<path class="st5" d="M208.43,184.23c-3.95,13.82-17.66,26.25-25.58,29.15c-9.02,3.3-27.27-13.39-23.96-29.15
		c3.54-16.85,15.27-20.98,24.87-20.98S212.85,168.75,208.43,184.23z"/>
	<path class="st1" d="M205.76,171.49c1.4,2.71,1.81,5.99,0.69,9.91c-3.95,13.82-17.66,26.25-25.58,29.15
		c-5.04,1.84-12.95-2.55-18.38-9.53c5.31,8.57,14.66,14.43,20.34,12.35c7.92-2.9,21.63-15.33,25.58-29.15
		C209.96,178.83,208.6,174.65,205.76,171.49z"/>
	<path class="st5" d="M134.96,200.62c-2.1,14.44-14.03,14.24-28.46,12.14S80.57,207.44,82.68,193c2.1-14.44,17-34.63,31.44-32.53
		S137.06,186.18,134.96,200.62z"/>
	<path class="st1" d="M117.62,161.45c10.75,6.62,16.68,25.6,14.89,37.91c-2.1,14.44-14.03,14.24-28.46,12.14
		c-5.71-0.83-10.95-1.84-15.08-3.64c4.39,2.62,10.62,3.89,17.53,4.9c14.44,2.1,26.36,2.3,28.46-12.14
		C136.89,187.39,129.9,166.49,117.62,161.45z"/>
	<g>
		<path d="M255.48,81.49c-2.33,6.47-5.97,12.4-9.7,18.14c-6.98,10.81-18.57,26.12-33.28,19.4c-6.5-2.88-11.51-7.95-15.63-13.38
			c3.53,3.7,7.33,7.15,11.72,9.74c12.3,7.65,21.6,1.46,29.72-8.53C244.62,98.86,250.78,90.57,255.48,81.49L255.48,81.49z"/>
	</g>
	<path class="st2" d="M190.56,67.98c7.01-10.39,22.69-13.2,37.84-11.26c-14.69-3.08-31.29-1.26-38.22,9.01
		c-2.57,3.81-3.57,8.42-3.38,13.36C187.16,75.02,188.35,71.25,190.56,67.98z"/>
	<g>
		<path d="M129.13,176.62c4.8,8.18,7.46,23.07,0.4,30.62C133.97,198,131.25,186.21,129.13,176.62L129.13,176.62z"/>
	</g>
	<path class="st2" d="M83.49,197.09c1.99-13.65,13.8-31.72,27.17-36.7c-13.28,1.17-26.05,19.32-27.99,32.6
		c-0.47,3.25-0.25,5.93,0.53,8.16C83.19,199.89,83.28,198.54,83.49,197.09z"/>
	<g>
		<path d="M198.88,195.71c-3.3,6.23-13.91,17.05-21.54,15.69c-1.33-0.27-2.57-0.78-3.69-1.46c2.53,0.57,5.15,0.81,7.25-0.25
			c1.11-0.53,2.21-1.12,3.26-1.81C189.57,204.45,194.22,200.11,198.88,195.71L198.88,195.71z"/>
	</g>
	<path class="st2" d="M159.63,185.98c3.78-18,16.3-22.4,26.56-22.4c0.91,0,1.91,0.05,2.97,0.15c-1.96-0.32-3.81-0.47-5.4-0.47
		c-9.61,0-21.34,4.13-24.87,20.98c-0.84,3.99-0.29,8.04,1.14,11.81C159.15,192.76,158.92,189.35,159.63,185.98z"/>
	<g>
		<path d="M268.53,188.52c-7.18,3.02-18.69,5.77-24.88-0.4c0,0,0.21-0.17,0.21-0.17l0.21,0.73c-0.19-0.27-0.63-0.82-0.82-1.09
			C251.06,191.94,260.13,188.79,268.53,188.52L268.53,188.52z"/>
	</g>
	<g>
		<path d="M306.34,166.9c2.86,10.51-6.67,14.36-15.18,16.02c-2.64,0.62-5.31,1.18-8.03,1.54c2.49-1.16,5.03-2.13,7.59-3.04
			C298.63,178.82,306.51,177.01,306.34,166.9L306.34,166.9z"/>
	</g>
	<path class="st2" d="M272.14,146.74c16.25-9.69,22.73-0.43,29.85,11.51c1.11,1.86,2.21,3.78,3.23,5.71c-1.3-3-3.01-6.02-4.72-8.89
		c-6.59-11.05-12.58-19.62-27.63-10.65c-9.05,5.39-20,16.31-25.87,26.57C253.65,161.32,263.67,151.78,272.14,146.74z"/>
	<g>
		<path d="M326.76,124.42c14.82,26.25,25.37,54.89,31.59,84.37C349.48,180.04,339.1,151.87,326.76,124.42L326.76,124.42z"/>
	</g>
	<g>
		<path d="M260.14,26.31c13.43,13.16,25.16,28.1,34.68,44.32C283.41,56.48,271.12,40.79,260.14,26.31L260.14,26.31z"/>
	</g>
	<path class="st2" d="M272.34,10.8c39.38,43.44,70.99,91.62,93.69,142.31C346.05,101.13,315.23,51.73,275.21,8
		c-4.91-5.37-12.85-6.29-18.81-2.58C262.09,4.39,268.16,6.2,272.34,10.8z"/>
	
		<ellipse transform="matrix(0.7071 -0.7071 0.7071 0.7071 -46.1478 160.941)" class="st6" cx="171.2" cy="136.18" rx="7.06" ry="4.46"/>
	
		<ellipse transform="matrix(0.9435 -0.3314 0.3314 0.9435 -25.8291 103.7143)" class="st6" cx="291.18" cy="127.59" rx="6.29" ry="4.1"/>
	
		<ellipse transform="matrix(0.9435 -0.3314 0.3314 0.9435 -12.5425 94.5953)" class="st6" cx="271.08" cy="84.07" rx="5.42" ry="4.11"/>
	
		<ellipse transform="matrix(0.8426 -0.5386 0.5386 0.8426 -28.1354 152.6202)" class="st6" cx="247" cy="124.44" rx="7.06" ry="4.46"/>
	
		<ellipse transform="matrix(0.7071 -0.7071 0.7071 0.7071 -66.7037 214.9995)" class="st6" cx="226.18" cy="188.02" rx="7.06" ry="4.46"/>
	
		<ellipse transform="matrix(0.7071 -0.7071 0.7071 0.7071 -36.7366 194.7822)" class="st6" cx="216.75" cy="141.74" rx="5.56" ry="3.97"/>
	
		<ellipse transform="matrix(0.9929 -0.1189 0.1189 0.9929 -19.1034 39.0731)" class="st6" cx="317.92" cy="179.64" rx="5.56" ry="3.97"/>
	
		<ellipse transform="matrix(0.7071 -0.7071 0.7071 0.7071 -68.3292 141.6868)" class="st6" cx="136.87" cy="153.32" rx="5.56" ry="3.97"/>
	
		<ellipse transform="matrix(0.7071 -0.7071 0.7071 0.7071 -86.5922 159.8694)" class="st6" cx="149.68" cy="184.46" rx="5.56" ry="3.97"/>
	
		<ellipse transform="matrix(0.3197 -0.9475 0.9475 0.3197 -154.9882 234.3022)" class="st6" cx="85.67" cy="225.08" rx="5.56" ry="3.97"/>
	<path class="st7" d="M64.59,471.99c0-1.07,0.86-1.93,1.93-1.93h28.5c8.23,0,14.56,0.65,18.99,1.94c4.42,1.29,7.75,3.16,9.98,5.6
		c2.23,2.44,3.73,5.4,4.52,8.86c0.79,3.47,1.18,8.84,1.18,16.11v10.12c0,7.42-0.77,12.83-2.3,16.22s-4.34,6-8.43,7.82
		c-4.09,1.82-9.44,2.73-16.04,2.73h-6.18c-1.07,0-1.93,0.86-1.93,1.93v42.94c0,1.07-0.86,1.93-1.93,1.93H66.52
		c-1.07,0-1.93-0.86-1.93-1.93V471.99z M94.8,491.93v25.72c0,1.06,0.86,1.92,1.92,1.93c0.11,0,0.21,0,0.31,0
		c2.77,0,4.7-0.68,5.78-2.04c1.08-1.36,1.61-4.2,1.61-8.51v-9.55c0-3.97-0.62-6.55-1.87-7.75c-1.01-0.97-2.9-1.55-5.67-1.73
		C95.76,489.93,94.8,490.81,94.8,491.93z"/>
	<path class="st7" d="M170.94,471.99v112.35c0,1.07-0.86,1.93-1.93,1.93h-26.36c-1.07,0-1.93-0.86-1.93-1.93V471.99
		c0-1.07,0.86-1.93,1.93-1.93h26.36C170.08,470.06,170.94,470.92,170.94,471.99z"/>
	<path class="st7" d="M235.96,471.99v21.02c0,0.2-0.03,0.4-0.09,0.59l-21.6,66.88c-0.4,1.25,0.53,2.52,1.84,2.52h17.92
		c1.07,0,1.93,0.86,1.93,1.93v19.4c0,1.07-0.86,1.93-1.93,1.93h-51.84c-1.07,0-1.93-0.86-1.93-1.93v-14.65
		c0-0.19,0.03-0.38,0.08-0.56l22.41-73.31c0.38-1.24-0.55-2.49-1.85-2.49h-15.99c-1.07,0-1.93-0.86-1.93-1.93v-19.4
		c0-1.07,0.86-1.93,1.93-1.93h49.11C235.09,470.06,235.96,470.92,235.96,471.99z"/>
	<path class="st7" d="M296.66,471.99v21.02c0,0.2-0.03,0.4-0.09,0.59l-21.6,66.88c-0.4,1.25,0.53,2.52,1.84,2.52h17.92
		c1.07,0,1.93,0.86,1.93,1.93v19.4c0,1.07-0.86,1.93-1.93,1.93H242.9c-1.07,0-1.93-0.86-1.93-1.93v-14.65
		c0-0.19,0.03-0.38,0.08-0.56l22.41-73.31c0.38-1.24-0.55-2.49-1.85-2.49h-15.99c-1.07,0-1.93-0.86-1.93-1.93v-19.4
		c0-1.07,0.86-1.93,1.93-1.93h49.11C295.8,470.06,296.66,470.92,296.66,471.99z"/>
	<path class="st7" d="M362.27,471.7l16.71,112.35c0.17,1.17-0.73,2.21-1.91,2.21H350.2c-1.01,0-1.85-0.78-1.92-1.78l-1.34-17.33
		c-0.08-1.01-0.92-1.78-1.92-1.78h-7.25c-1,0-1.84,0.77-1.92,1.76l-1.51,17.36c-0.09,1-0.92,1.76-1.92,1.76h-27.27
		c-1.17,0-2.07-1.03-1.91-2.18l14.9-112.35c0.13-0.96,0.95-1.68,1.91-1.68h40.32C361.31,470.06,362.13,470.76,362.27,471.7z
		 M345.76,542.63c-0.96-8.44-1.92-18.1-2.88-28.98c-0.2-2.3-3.54-2.37-3.84-0.08c-1.57,12.23-2.67,21.93-3.27,29.12
		c-0.1,1.13,0.79,2.08,1.92,2.08h6.15C344.99,544.78,345.89,543.78,345.76,542.63z"/>
	<path class="st8" d="M75.71,254.14c-3.51,5.12-6.67,14.92-9.04,20.65c-2.36,5.74-3.51,12.16-2.05,18.19
		c2.66,11.02,13.52,19.48,13.46,30.82c-0.01,2.02-0.9,4.54-2.92,4.64c-1.83,0.09-3-1.86-3.72-3.54c-0.65-1.5-1.29-3.01-1.95-4.5
		c0.97,4.57,1.46,10.37,1.46,17.42v1.55c0,1.92-1.56,3.47-3.47,3.47c-2.81-0.56-4.29,0.13-4.67,0.79c-0.38,0.66-0.3,1.44-0.7,1.9
		c-0.6,0.7-0.75,0.11-1.06-0.28c-0.53-0.65-0.28-1.3-0.79-1.76c-0.57-0.51-1.89-0.36-2.46,0.32c-0.46,0.55-0.13,1.08-0.14,2.69
		c0,0.33-0.04,3.72-1.16,4.04c-0.18,0.05-0.48,0.05-0.97-0.32c-0.18-0.21-0.45-0.54-0.71-0.98c-1.22-2.05-0.67-3.65-1.33-5.38
		c-0.32-0.83-1.02-1.94-2.7-2.97c-1.07-0.19-2.32-0.22-3.15,0.51c-0.57,0.5-0.58,1.03-1.3,3.67c-0.72,2.62-1.09,3.48-1.76,3.66
		c-0.35,0.09-0.69-0.02-0.93-0.14c-0.58-0.97-1.2-2.18-1.72-3.62c-0.78-2.16-1.09-4.11-1.2-5.6v-7.08c0-6.65-0.29-10.81-0.86-12.49
		c-0.58-1.67-1.94-2.51-4.09-2.51c-1.87,0-3.14,0.72-3.81,2.15c-0.67,1.44-1,5.12-1,11.06v55.77c0,5.21,0.33,8.65,1,10.3
		c0.67,1.65,2.01,2.47,4.02,2.47c2.2,0,3.7-0.93,4.49-2.8c0.79-1.86,1.18-5.5,1.18-10.91V374.6c0-1.37-2.04-3.79-2.61-3.44
		c-0.06,0.04-0.1,0.09-0.16,0.41c-0.21,1.33,0.24,2.22,0.08,3.56c-0.01,0.13-0.05,0.53-0.14,0.53c-0.08,0-0.16-0.4-0.22-0.76
		c-0.04-0.55-0.15-0.98-0.25-1.28c-0.12-0.37-0.19-0.42-0.24-0.42c-0.13,0-0.22,0.42-0.25,0.57c-0.22,1.2-0.3,2.19-0.33,2.88
		c-0.06,1.49-0.1,2.23,0,3.06c0.01,0.15,0.06,0.6,0.01,1.19c-0.01,0.11-0.13,1.41-0.42,1.44c-0.3,0.03-0.66-1.23-0.76-1.6
		c-0.34-1.19-0.89-4.15-0.81-12.24v-11.13c0-1.92,1.56-3.48,3.47-3.48h28.45c1.91,0,3.47,1.56,3.47,3.48v56.97
		c0,0.99-1.97,18.84-6.17,8.21c-0.15-0.38-0.42-0.66-0.75-0.82c-0.9-0.44-1.96,0.24-2.09,1.23l-3.03,22.77
		c-0.39,2-3.22,2.07-3.7,0.09c-1.85-7.53,2.28-27.15-3.25-30.63c-0.27-0.17-0.5-0.41-0.6-0.71l-0.96-2.84
		c-0.49-1.47-1.6-3.26-3.36-0.55c-2.1,3.23-7.63,27.99-5.87,40.45c0.58,4.09-4.49,5.95-4.29,0.23c0.84-24.08-3.42-34.73-5.82-26.17
		c-1.56,5.57-3.29,2.45-4.71-2.05c-1.99-6.3-1.45-9.79-4.89-8.49c-3.22,1.21-3.85,5.76-5.57,4.82c-1.39-0.77-2.41-6.37-3.59-7.25
		c-2.65-1.97-4.77-4.23-6.38-6.77c-2.3-3.63-3.74-7.45-4.31-11.45c-0.57-3.99-0.86-9.99-0.86-17.98v-34.52
		c0-11.1,0.6-19.17,1.79-24.19c1.2-5.02,4.63-9.63,10.3-13.82c5.67-4.18,13.01-6.28,22-6.28c0.42,0,0.84,0,1.25,0.02
		c-0.43-1.95,0.68-4.16,1.77-5.97c5.9-9.79,12.65-20.96,18.9-31.33c1.62-2.69,3.22-5.33,4.75-7.87"/>
	<path class="st8" d="M89.9,244.01c5.53,18.59,5.52,41.35-2.27,59.07c-0.86,1.95-1.81,4.01-1.49,6.11c0.32,2.11,2.59,4.02,4.46,3.06
		c0.72-0.37,1.19-1.04,1.58-1.78L78.47,413.78c-0.02,0.22-0.02,0.44,0.03,0.66c0.07,0.33,0.19,0.73,0.4,1.17
		c0.84,1.77,2.47,2.59,2.81,2.79c4.28,2.48,3.05,19.1,2.97,20.11v0.11c-0.01,8.5-1.04,12.72-2.48,15.78
		c-3.44,7.31-9.96,11.37-14.67,13.49c-2.68,1.21-4.49,3.79-4.81,6.7c-0.77,6.81,0.45,10.84,0.99,10.42c1.26-0.99,2.24-8,6-7.97
		c2.53,0.01,2.91,2.79,5.87,3.46c4.14,0.93,5.81-3.9,11.2-4.64c5.76-0.79,13.13,3.47,14.57,8.38c0.54,1.85,0.63,5.12,1.85,5.32
		c0.36,0.06,0.67-0.16,0.74-0.22c1.12-0.78-0.08-2.72,0.81-4.97c0.11-0.27,0.74-1.78,2.32-2.57c0.32-0.16,1.45-0.73,2.47-0.47
		c2.95,0.76,2.56,7.72,4.64,8c1.03,0.15,2.15-1.44,2.63-2.46c1.47-3.14-0.82-5.91,0.55-7.35c0.96-1,2.93-0.56,3.8-0.37
		c4.77,1.07,6.98,5.91,7.4,5.65c0.45-0.28-0.93-6.32-5.84-9.65c-3.1-2.1-7.73-3.2-9.87-3.71c-0.41-0.1-1.85-0.44-3.76-1.01
		c-1.56-0.47-2.77-0.86-4.24-1.51c-3.57-1.57-6.96-4.14-9.91-9.08c-1.59-2.67-1.13-4.64-3.32-13.43c-0.01-0.04-0.02-0.07-0.02-0.1
		c-0.2-1.11-3.83-22.01-0.12-26.68c0.26-0.32,0.98-1.23,1.73-1.11c0.95,0.15,1.44,1.85,1.73,3.09c2.08,8.88,0.5,16.33,0.5,16.33
		c-0.47,2.21-1.12,4.37,0,5.45c0.59,0.56,1.74,0.88,2.58,0.46c2.45-1.25,2.42-8.96,1.01-14.57c-0.27-1.04-0.27-2.7,0.12-4.82
		c0.43-2.3,1.31-4.07,1.98-5.2c0.17-0.38,0.92-1.9,2.72-2.72c1.76-0.8,3.35-0.39,3.77-0.27c1,0,1.83-0.77,1.92-1.76l1.51-17.36
		c0-0.09,0.07-1,0.62-1.26c0.58-0.28,1.66,0.19,2.15,1.41c0.53,1.08,0.75,2.01,0.86,2.67c0.2,1.33,0.07,2.53,0.69,2.81
		c0.03,0.01,0.25,0.11,0.48,0.03c1.13-0.39-0.2-4.26,1.54-6.23c0.42-0.47,1.21-1.05,2.84-1.2c1,0,1.84,0.78,1.92,1.78l1.34,17.33
		c0.07,0.29,0.22,0.79,0.62,1.27c0.79,0.93,1.93,1.02,2.16,1.03c0.93,0.3,1.55,0.7,1.86,0.93c6.1,4.36,3.22,18.17,5.01,34.84
		c0.25,2.32,1.58,2.99,2.19,2.56c0.2-0.14,0.33-0.45,0.31-0.66c-0.58-7.77-0.48-8.5-0.64-11.57c-0.16-2.84,0.09-5.15,0.18-7.68
		c0.07-1.62,1.14-9.61,2.26-11.99c0.4-0.84,0.89-1.67,1.54-1.69c0.78-0.03,1.4,1.13,1.86,2c1.09,2.07,1.72,3.41,2.48,6.34l0.86,4.18
		c1.06,7.42,0.85,12.01,1.05,18.61c0.29,9.51-0.18,11.87-1.79,13.67c-1.22,1.37-2.59,1.93-3.4,4.02c-0.51,1.31-0.29,1.88,0,7.06
		c0.22,4.05-0.23,6.68,0.69,7.05c0.63,0.25,1.79-1.23,2.09-1.42c3.2-2.11,1.32-7.65,4.21-9.28c0.76-0.44,1.92-0.62,2.78-0.19
		c1.23,0.61,0.89,1.89,2.06,2.71c1.2,0.83,3.23,0.64,4.48-0.27c1.58-1.16,1.07-2.86,2.49-3.55c1.35-0.66,2.99,0.91,3.71,0.18
		c0.27-0.27,0.26-0.67,0.25-0.86c-0.07-2.33-4.42-5.07-5.51-6.5c-3.06-4.02-4.14-8.57-4.94-21.03c0,0-1.12-23.52-0.4-26.64
		c0.16-0.7,0.67-1.24,1.29-1.6c0.66-0.38,1.07-1.14,0.95-1.95L138.3,307.23c0.57,2.35,0.65,4.82,1.35,7.14
		c0.26,0.89,0.72,1.85,1.6,2.13c1.18,0.38,2.4-0.76,2.6-1.98c0.19-1.23-0.31-2.44-0.79-3.58c-4.11-9.99-6.49-20.68-7-31.47
		c-0.11-2.3,0.57-5.41,2.88-5.46c1.47-0.03,2.55,1.32,3.34,2.55c7.39,11.48,10.4,24.99,10.99,38.63c0.08,1.9,0.46,4.38,1.4,6.03
		c0.94,1.66,2.81,2.65,4.47,1.71c2.59-1.45,1.53-5.26,1.09-8.2c-0.34-2.25,0.41-4.66,1.77-6.72v106.33c0,0.53,0.22,1.01,0.56,1.36
		c0.56,0.56,1.24,0.57,1.37,0.57c1.65,0.13,2.7,0.67,3.39,1.38c2.04,2.12,0.7,5.69,2.59,6.68c0.58,0.31,1.4,0.34,1.98,0
		c1.7-0.98,0.06-4.31,1.73-6.43c1.43-1.8,4.94-2.32,6.81-0.99c1.61,1.15,1.23,3.12,1.89,9.27c0.69,6.43,1.2,10.74,3.3,11.39
		c1.16,0.36,2.86,0.28,3-1.58c0.15-1.8-1.03-2.7-1.29-9c-0.1-2.18,0.17-3.27,0.78-4.22c0.3-0.45,1.21-1.11,2.6-0.23
		c1.23,0.78,0.7,6.78,2.18,7.84c0.74,0.53,0.88,0.47,1.63-0.09c1.61-1.21,0.74-6.07,1.37-8.18c0.62-2.08,3.25-4.59,12.77-5.84
		c1.07,0,1.93-0.86,1.93-1.93v-19.4c0-1.06-0.86-1.93-1.93-1.93h-14.51c-1.07,0-1.93-0.86-1.93-1.93v-89.09
		c0-1.06-0.87-1.93-1.93-1.93h-16.24c0.07-0.15,0.11-0.32,0.15-0.49c0.39-1.87-1.37-3.57-3.21-4.08c-1.83-0.52-3.79-0.27-5.68-0.55
		c-5.92-0.89-9.72-6.58-12.77-11.74c-4.78-8.09-9.59-16.24-12.93-25.03c-3.34-8.79-4.81-23.59-3.41-32.89 M127.16,227.42
		c1.94,20.89,2.84,46.96,0.13,67.77c-0.22,1.67-0.27,3.71,0.78,4.87H113.3c-0.72-2.92-3.67-5.41-5.81-7.84
		c-5.31-6.04-6.43-14.8-5.99-22.9c0.45-8.09,1.47-21.66,0.93-29.75 M119.05,374.78h-6.14c-1.13,0-2.02-0.96-1.92-2.08
		c0.58-6.93,1.62-16.21,3.1-27.83c0.29-2.27,3.59-2.25,3.84,0.02l3.04,27.75C121.09,373.78,120.2,374.78,119.05,374.78z"/>
	<path class="st8" d="M227.87,200.51c5.62,32.53,4.94,69.96-3.67,101.83c-0.56,2.05-1.14,4.19-0.72,6.27
		c0.43,2.09,2.23,4.06,4.35,3.88c1.27-0.1,2.29-0.89,3.24-1.81c-4.56,34.47-9.14,68.94-13.71,103.41
		c-0.43,3.83-1.04,9.06-1.82,15.25c-2.41,19.32-3.21,22.31-5.42,25.8c-1.07,1.69-5.9,9.3-14.72,12.25
		c-6.27,2.09-9.66,0.19-12.74,3.34c-4.1,4.17-3.56,13.07-0.62,14.59c1.02,0.53,2.58,0.3,3.46-0.49c1.51-1.36,0.15-3.57,1.73-6.93
		c0.42-0.88,1.32-1.88,2.48-2.84c3.71-3.1,6.06-1.89,9.65-2.11c10.02-0.62,14.48-5.04,18.06-9.03c1.59-1.77,3.36-5.12,4.08-11.13
		c0.9-7.44-0.18-8.47,0.87-17.32c1.22-10.29,0.31-5.7,1.54-11.94c0.43-2.62,0.73-4.47,2.42-6c0.89-0.81,2.8-1.88,4.57-1.36
		c3.88,1.13,4.04,8.71,6.68,8.78c0.53,0.02,1.38-0.28,2.49-1.69c1.18-1.83,1.53-3.37,1.77-3.87c0.76-1.65,1.8-3.81,5.93-3.85
		c1.01-0.53,0.54-1.01,0.86-2.97l1.35-15.42c0.03-0.56,0.17-1.06,0.61-1.26c0.53-0.24,1.05-0.04,1.25,0.58
		c0.37,1.14,1.08,5.62,1.36,6.12c0.28,0.5,0.59,0.35,0.93,0.19c0.48-0.24,0.4-1.16,0.67-3.8c0.09-0.91,0.19-1.65,0.72-1.96
		c0.09-0.05,0.39-0.22,0.63-0.1c0.59,0.29-0.07,1.97,0.73,2.55c0.11,0.08,0.29,0.21,0.47,0.15c0.7-0.21-0.07-2.95,1.23-3.96
		c0.22-0.17,0.45-0.24,0.57-0.28c1.01,0,1.85,0.78,1.93,1.78l1.34,17.33c0.04,0.5,0.27,0.95,0.62,1.27
		c0.53,0.49,1.17,0.51,1.31,0.51c1.25-0.6,2.78-1.05,3.98-0.41c4.57,2.44-1.84,20.13,1.48,21.53c0.25,0.1,0.75,0.2,1.21,0
		c1.54-0.7,0.58-4.14,2.16-5.11c0.77-0.46,1.83-0.18,2.38,0.1c2.86,1.41,2.41,7.79,1.98,13.85c-0.37,5.25-0.62,8.33-2.36,12.18
		c-1.42,3.13-2.63,5.82-5.43,7.68c-5.32,3.53-11.24,0.7-13.12,4.02c-0.51,0.91-0.42,2.03-0.24,4.27c0.12,1.51,0.45,5.56,2.67,6.39
		c0.09,0.04,1.17,0.43,1.97-0.09c0.79-0.51,0.6-1.47,1.6-3.64c0.54-1.16,0.84-1.43,0.99-1.55c0.7-0.55,1.85-0.89,2.74-0.48
		c0.76,0.35,0.91,0.65,1.78,1.78c0.35,0.45,0.5,0.74,1,0.68c0.51-0.05,0.86-0.17,1.19-1.68c0.42-1.91,2.5-3.48,3.1-3.89
		c1.52-1.05,3.05-1.28,3.62-1.34c0.7-0.08,2.34-0.26,3.94,0.6c1.63,0.87,1.7,1.37,2.74,2.36c2.13,2.05,3.54,1.4,4.22,0.75
		c1.02-0.98,2.67-2.95,2.9-4.62c0.13-0.92-1.44-1.63-1.79-2.06c-1.28-1.6-2.15-3.18-3.04-5.22c-1.33-3.09-2.19-6.63-3.22-14.59
		c-0.99-7.66-0.65-5.71-1.24-11.9c-1.36-14.31-0.15-17.35,1.3-19.09c0.34-0.41,1.17-1.38,1.93-1.21c1.3,0.29,1.71,3.67,1.91,5.29
		c0.35,2.89,0.04,4.91,0.92,5.24c0.37,0.14,0.73-0.08,0.75-0.09c0.77-0.48,0.33-2.02,0.27-4.55c-0.04-1.99-0.1-4.48,1.12-5.15
		c0.49-0.27,1.07-0.16,1.44-0.05c1.18,0,2.09-1.05,1.91-2.21L276.88,304.9c1.09,0.37,2.2,0.63,3.31,0.41
		c3.58-0.71,4.26-6.1,1.9-8.88c-2.37-2.79-6.27-3.59-9.87-4.22c-7.59-1.33-15.19-2.67-22.78-4c-3.1-0.54-6.49-1.25-8.45-3.72
		c-1.84-2.32-1.89-5.55-1.78-8.51c0.46-12.19,2.25-24.31,2.47-36.51c0.22-12.19-1.51-28.13-7.13-38.96 M257.98,374.78h-6.14
		c-1.13,0-2.02-0.96-1.93-2.08c0.61-7.19,1.7-16.89,3.28-29.12c0.29-2.29,3.63-2.22,3.83,0.08c0.96,10.87,1.92,20.53,2.88,28.98
		C260.03,373.78,259.14,374.78,257.98,374.78z"/>
	<path class="st8" d="M296.9,195.04c0.5,5.73,1.56,14.42,4.02,24.8c3.47,14.59,5.54,14.9,8.41,28.33
		c3.68,17.2,5.51,25.79,4.45,32.54c-0.21,1.35-1.25,7.42,1.48,13.11c1.18,2.46,2.52,3.71,3.59,4.45c2.92,2.04,6.13,1.9,7.32,1.79
		c0.94,0,1.74,0.67,1.9,1.59c0.59,3.26,1.55,8.06,2.88,14.41c0.46,2.08,0.89,4.09,1.29,6.04c0.42,2.06,3.36,2.05,3.78-0.01
		l3.12-15.32c-0.38,0.19-0.75,0.39-1.13,0.58c-1.07,0.55-2.42,1.08-3.39,0.38c-1.14-0.82,0.43-4.52,0.52-4.74
		c2.97-6.91,10.94-9.85,12.78-10.53c2.03-0.75,5.33-1.93,9.65-1.73c5.71,0.26,5.76,2.6,11.43,3.16c1.04,0.1,0.89-0.46,14.1-0.92
		c2.02-0.07,4.13,0.06,5.92,1.01c1.78,0.96,3.17,2.91,2.91,4.91c-0.05,0.42-0.17,0.81-0.35,1.17h5.54c0.92,0,1.72,0.67,1.9,1.58
		c2.37,12.46,4.15,22.61,5.34,30.46c0.33,2.16,3.44,2.19,3.81,0.03c1.54-9.04,3.53-19.22,5.97-30.54c0.19-0.88,0.98-1.53,1.89-1.53
		h23.61c1.29,0,2.22,1.24,1.85,2.48l-21.22,71.4c-0.05,0.18-0.08,0.36-0.08,0.55v39.85c-0.03,0.31-0.14,0.87-0.56,1.36
		c-0.66,0.79-1.81,1.09-2.95,0.81c-0.56,0.05-1.32,0.2-1.96,0.74c-1.53,1.28-0.99,3.78-1.01,6.31c-0.07,8.72-0.15,5.18,0.22,14.27
		c0.08,2.02,0.55,4.67-0.87,5.68c-0.57,0.4-1.39,0.53-2.04,0.28c-1.35-0.51-1.79-2.52-2-3.93c-1.24-8.33,1.86-19.55-1.71-23.35
		c-0.24-0.27-1.02-1.1-1.77-0.93c-1.23,0.28-1.58,3.08-1.74,4.33c-0.55,4.42,0.65,7.02-0.38,7.64c-0.63,0.38-1.75-0.17-2.42-0.74
		c-3.13-2.64-0.23-8.68-2.8-10.54c-0.62-0.46-1.78-0.8-4.07,0c-0.13,0-0.81-0.01-1.36-0.57c-0.35-0.35-0.57-0.83-0.57-1.36v-39.86
		c0-0.18-0.02-0.36-0.07-0.53c-2.87-10.02-4.61-20.43-5.8-20.24c-0.2,0.04-0.33,0.35-0.46,0.63c-0.16,0.75-0.03,1.49,0.13,2.26
		c0.31,1.55,0.18,0.98,0.61,3.74c0.14,0.85,0.21,1.38,0.13,2.26c-0.04,0.45-0.15,0.79-0.37,1.02c-0.53,0.55-1,0.1-1.22,0
		c-1.6-0.73-1.36-5.06-0.74-13.71c0.11-1.53,0.14-3.74-0.28-6.35c-0.12-0.77-0.34-1.94-1.7-6.19c-0.14-0.44-2.47-7.66-2.94-7.53
		c-0.38,0.1,0.62,4.88-0.7,6.13c-0.09,0.09-0.36,0.34-0.62,0.28c-0.57-0.13-0.59-1.65-0.85-1.65c-0.16,0.01-0.3,0.62-0.31,0.81
		c-0.06,1.03-0.09,1.54-0.08,2.2c0.04,1.98-0.3,2.26-0.43,2.35c0,0-0.26,0.18-0.62,0.13c-1.28-0.18-1.1-8.27-1.67-15.78
		c-0.5-6.78-1.42-13.32-2.3-19.93c-0.07,0.08-0.14,0.17-0.21,0.26c-1.39,1.85-1.24,4.41-0.89,6.7c0.35,2.28,0.84,4.71-0.04,6.85
		s-3.82,3.58-5.58,2.08c-2.05-1.73-0.63-4.97-0.38-7.64c0.13-1.42-0.15-2.78-0.74-4.01l-8.76,42.41c-0.06,0.28-0.06,0.57,0.01,0.85
		l15.31,62c0.3,1.21-0.62,2.39-1.87,2.39c-2.03-0.41-4.7-0.55-6.83,0.89c-3.19,2.17-3.37,7.26-3.61,17.35
		c-0.17,6.94,0.32,12.1,0.64,14.84c0.45,3.79,0.52,7.08,0.89,9.24c1.06,6.21,1.6,5.48,3.01,10.81c2.19,8.22,2.22,9.32,2.92,12.75
		c0.03,0.13,0.84,3.99-0.15,5.3c-0.34,0.45-0.95,0.59-0.95,0.59c-0.18,0.06-0.87,0.27-1.35-0.04c-0.43-0.28-0.52-0.85-0.56-1.11
		c-0.6-3.9-1.11-5.47-1.3-6.06c-0.42-1.32-0.79-1.67-1.09-2.11c-0.69-1.01-1.46-1.55-2.23,0.53c-0.24,0.66-0.86,1.23-1.37,0.55
		c-0.68-0.88-0.97-1.56-1.85-1.73c-0.6-0.12-0.92,2.66-1.67,2.61c-0.87-0.06-1.27-2.63-1.29-3.17c-0.12-2.87-0.44-4.17-1.12-4.73
		c-0.28-0.22-0.79-0.43-1.87-0.15c-0.45,0.12-1.07,0.2-1.52-0.13c-0.62-0.45-0.34-1.3-0.98-1.9c-0.66-0.62-1.49-0.14-1.77-0.54
		c-0.7-0.96,2.46-3.64,4.2-7.19c1.18-2.4,1.27-4.39,1.41-8.26c0.64-17.78,0.64-18.68,0.57-20.69c0,0-0.45-13.84-3.89-16.08
		c-0.1-0.06-0.98-0.77-2.31-1.57c-0.45-0.27-1.59-0.44-1.86-1.4c-2.31-8.21-4.49-17.65-6.53-28.32c-0.41-2.15-3.51-2.08-3.81,0.09
		c-0.48,3.47-1.03,7.04-1.63,10.68l-2.6,17.31c-0.14,0.94-0.95,1.64-1.91,1.64c-0.19,0.06-0.52,0.18-0.88,0.42
		c-1.81,1.22-2.04,3.92-2.09,5.62c-0.46,17.97,5.52,33.26,5.52,33.26c3.35,8.56,5.4,10.61,7.61,11.23c1.28,0.35,4.39,0.72,5.24,2.64
		c0.09,0.2,0.33,0.74,0.1,1.07c-0.54,0.76-2.8-0.71-4.27,0.32c-0.66,0.47-0.85,1.22-0.88,1.35c-0.32,1.29,0.77,2.19,1.48,3.8
		c0.88,1.98,1.83,5.38,0.71,6.25c-0.62,0.49-1.87,0-2.6-0.49c-2.01-1.38-1.26-3.76-3.03-4.74c-1.26-0.69-2.83-0.13-3.43,0.1
		c-1.45,0.54-2.27,1.55-2.88,2.32c-1.13,1.44-1.61,2.87-1.85,3.71c-1.67,5.8,0.19,10.11-1.67,11.13c-0.33,0.18-0.89,0.32-1.3,0.09
		c-0.77-0.41-0.44-1.74-1.23-3.91c-0.26-0.71-0.62-1.68-1-1.65c-0.54,0.03-0.57,1.99-1.2,3.8c-1.08,3.07-4,5.99-5.11,5.57
		c-1.7-0.65,0.71-9.36,4.36-30.62c0.23-1.31,1.05-6.1,2.02-12.37c0,0,3.77-24.44-1.1-35.97c-0.27-0.65-1-2.36-2.08-2.41
		c-0.28-0.02-0.93,0.07-1.9,1.48c-1.56,2.27-1.76,4.78-1.85,6.13c-0.46,6.75,0.24,10.02-1.18,10.64c-0.55,0.24-1.11-0.05-1.14-0.07
		c-1.37-0.73-0.56-3.78-0.56-7.42c0-2.68,0.01-8.21-3.06-10.48c-0.72-0.54-2.55-1.59-6.23-0.8c-0.11,0-0.91-0.01-1.47-0.69
		c-0.36-0.41-0.53-0.97-0.43-1.56l10.53-62.2c0.05-0.24,0.04-0.49-0.01-0.73l-8.99-42.04c-1.29,2.34-1.78,5.12-1.13,7.72
		c-3.48,0.54-6.45-3.02-6.82-6.52c-0.38-3.51,0.99-6.92,1.94-10.31c2.06-7.37,2.15-15.13,2.02-22.78
		c-0.44-26.79-4.32-55.89-9.73-82.12"/>
	<path class="st8" d="M189.42,213.74c5.34,8.55,7.45,16.05,8.35,21.6c1.81,11.19-0.04,22.55,3.36,23.52
		c0.87,0.25,2.03-0.21,2.7-0.77c1.24-1.03,2.02-2.9,1.65-6.17c-0.15-1.36-0.07-2.75,0.53-3.97c2.1-4.31,5.99-2.54,7.23,0.1
		c0.83,1.76,0.78,3.79,0.72,5.74l-0.81,25.02c-0.04,1.23,0.77,2.4,1.98,2.62c1.72,0.31,2.55-1.5,2.91-3.01
		c3.3-13.53,0.4-27.71-2.51-41.32c-1.47-6.91-4.89-22.38-7.21-34.82"/>
</g>
<g id="Capa_2">
</g>
</svg>
