<?xml version="1.0" encoding="utf-8"?>
<!-- Generator: Adobe Illustrator 26.0.0, SVG Export Plug-In . SVG Version: 6.00 Build 0)  -->
<svg version="1.1" xmlns="http://www.w3.org/2000/svg" xmlns:xlink="http://www.w3.org/1999/xlink" x="0px" y="0px"
	 viewBox="0 0 335.32 276.52" style="enable-background:new 0 0 335.32 276.52;" xml:space="preserve">
<style type="text/css">
	.st0{fill:#E0B500;}
	.st1{opacity:0.2;}
	.st2{fill:#FFFFFF;}
	.st3{fill:#DD9226;}
	.st4{fill:none;stroke:#000000;stroke-width:2;stroke-miterlimit:10;}
	.st5{fill:#E23737;}
	.st6{opacity:0.7;fill:#DD9226;}
	.st7{fill:#E23737;stroke:#000000;stroke-width:1.5;stroke-miterlimit:10;}
	.st8{fill:#E0B500;stroke:#000000;stroke-width:1.5;stroke-linecap:round;stroke-miterlimit:10;}
</style>
<g id="Vector">
</g>
<g id="Capa_2">
	<path d="M12.28,276.52c-4.12,0-8.09-2.13-10.36-5.55c-2.19-3.3-2.52-7.35-0.93-11.1c19.6-45.18,46.7-88.23,80.54-127.96
		c35.38-41.53,77.37-78.49,124.79-109.83l2.45-1.62l1.81,2.31c46.89,59.9,81.54,124.92,102.97,193.26l1.48,4.71l-4.9-0.61
		c-20.43-2.54-41.15-3.82-61.57-3.82c-81.41,0-160.99,20.26-230.13,58.59C16.5,275.98,14.43,276.52,12.28,276.52z"/>
	<path class="st0" d="M4.59,260.56C42.73,172.63,111.82,88.24,208.75,24.18c47.5,60.68,81.73,126.22,102.44,192.25
		c-107.51-13.35-209.95,8.75-293.64,55.15C10.06,275.75,1.2,268.54,4.59,260.56z"/>
	<path class="st1" d="M311.19,216.43c-0.29-0.04-0.58-0.07-0.87-0.1c-1.27-4.04-2.6-8.09-3.97-12.12c-8.24-0.9-16.44-1.6-24.6-2.08
		c-17.41-58.92-48.72-115.4-91.6-165.15c6.09-4.35,12.28-8.61,18.61-12.79C256.25,84.86,290.48,150.4,311.19,216.43z"/>
	<path class="st2" d="M212.94,31.02c-1.61-2.1-3.22-4.2-4.86-6.29C150.26,62.94,102.35,108.39,65,157.5
		C104.84,110.36,154.39,67.17,212.94,31.02z"/>
	<path class="st1" d="M310.52,216.97c-107.51-13.34-209.95,8.75-293.64,55.15c-7.48,4.18-16.35-3.04-12.97-11.01
		c0.9-2.07,1.81-4.12,2.74-6.19c1.45,5.16,7.81,8.41,13.4,5.28c75.35-41.78,165.91-63.84,261.68-58.08
		c8.17,0.48,16.37,1.18,24.6,2.08c1.37,4.04,2.7,8.08,3.97,12.12C310.39,216.54,310.46,216.76,310.52,216.97z"/>
	<g>
		<path d="M306.34,204.21c-24.47-1.19-48.9-1.97-73.38-1.2c-14.63,0.27-29.4,1.44-44.02,2.22
			C227.61,198.23,267.57,197.85,306.34,204.21L306.34,204.21z"/>
	</g>
	<path d="M317.26,228.26c-8.43,0-15.65-5.74-17.56-13.96c-15.35-66.02-49.79-129.67-99.59-184.09c-6.71-7.34-6.21-18.77,1.13-25.48
		C204.58,1.68,208.9,0,213.42,0c5.05,0,9.9,2.14,13.31,5.86c53.98,58.98,91.37,128.23,108.12,200.27c2.25,9.69-3.8,19.4-13.48,21.65
		C320.01,228.1,318.63,228.26,317.26,228.26z"/>
	<path class="st3" d="M320.65,224.69c-1.14,0.26-2.26,0.39-3.38,0.39c-5.34,0-10.26-2.89-12.89-7.48c-0.7-1.22-1.24-2.57-1.57-4.01
		c-15.47-66.55-50.17-130.7-100.34-185.51c-5.54-6.05-5.12-15.45,0.93-21c6.05-5.54,15.45-5.12,21,0.93
		c52.84,57.73,89.66,125.37,106.63,195.76c0.25,1.02,0.49,2.06,0.73,3.08C333.61,214.85,328.64,222.83,320.65,224.69z"/>
	<path d="M170.12,124.44c-3.9,0-7.84-1.38-12.04-4.21c-7.88-5.32-15.5-15.07-19.89-25.44c-5.06-11.95-5.11-22.58-0.14-29.94
		c4.82-7.14,14.34-11.07,26.8-11.07c11.59,0,23.88,3.43,32.06,8.96c16.66,11.25,8.46,26.39-1.36,40.94
		C188.45,114.18,180.64,124.44,170.12,124.44z"/>
	<path d="M67.18,215.38c-3.98,0-8.36-0.56-11.73-1.06c-14.02-2.04-27.52-5.39-25.16-21.56c2-13.71,15.85-34.04,30.9-34.04
		c0.78,0,1.57,0.06,2.34,0.17c15.81,2.3,24.36,27.03,22.19,41.95C83.81,213.88,74.22,215.38,67.18,215.38z"/>
	<path d="M129.5,215.38c-5.19,0-11.73-3.92-16.66-10c-5.47-6.74-7.78-14.57-6.32-21.48c4.06-19.35,18.3-22.24,26.43-22.24
		c6.69,0,18.62,2.62,24.06,9.83c2.84,3.76,3.55,8.2,2.13,13.18c-4.05,14.18-18.2,27.15-26.56,30.2
		C131.63,215.21,130.59,215.38,129.5,215.38z"/>
	<path d="M205.15,195.71c-6.44,0-10.78-2.03-13.26-6.21c-3.31-5.56-1.06-14.32,6.36-24.66c6.15-8.59,15.18-17.14,22.98-21.79
		c4.48-2.67,8.38-3.97,11.93-3.97c8.83,0,13.85,8.41,17.87,15.17c4.54,7.63,9.16,16.35,6.39,23.33c-1.55,3.9-5.28,6.72-11.09,8.38
		c-3.3,0.94-6.52,1.89-9.64,2.82C224.14,192.5,213.31,195.71,205.15,195.71z"/>
	<g>
		<path d="M100.19,225.27c-20.08,8.15-40.05,16.4-59.57,25.79c-2.92,1.38-8.78,4.23-11.67,5.67c0,0-5.81,2.9-5.81,2.9
			c-4.16,2.41-8.61,3.72-12.85,0.69c-1.88-1.28-3.18-3.28-3.64-5.4c1.51,4.13,6.05,6.5,9.98,5.68c2.08-0.38,3.75-1.65,5.57-2.69
			c5.61-3.33,11.36-6.42,17.17-9.39C58.8,238.77,79.12,230.67,100.19,225.27L100.19,225.27z"/>
	</g>
	<path class="st1" d="M330.54,216.89c0.01,0,0.01-0.01,0.02-0.01c-0.08,0.16-0.17,0.32-0.25,0.48c-0.06,0.1-0.12,0.2-0.17,0.3
		c-0.12,0.21-0.24,0.41-0.37,0.61c-0.14,0.21-0.29,0.43-0.43,0.64c0,0-0.02,0.01-0.02,0.02c-0.15,0.21-0.31,0.41-0.47,0.61
		c-0.02,0.02-0.02,0.03-0.04,0.05c-0.16,0.2-0.33,0.39-0.5,0.58c-0.17,0.2-0.35,0.39-0.53,0.57c-0.02,0.01-0.02,0.02-0.03,0.03
		c-0.18,0.18-0.37,0.36-0.57,0.53c-0.17,0.15-0.33,0.29-0.51,0.44c-0.14,0.12-0.29,0.23-0.43,0.34c-0.13,0.1-0.25,0.19-0.38,0.28
		c-0.38,0.26-0.77,0.52-1.18,0.75c-0.12,0.07-0.24,0.14-0.37,0.21c-0.68,0.37-1.39,0.68-2.13,0.93c-0.24,0.09-0.48,0.17-0.72,0.24
		c-0.27,0.08-0.54,0.15-0.82,0.21h-0.01c-1.13,0.26-2.26,0.39-3.38,0.39c-0.01,0-0.01,0-0.02,0c-0.21,0-0.41-0.01-0.61-0.02
		c-0.21-0.01-0.42-0.02-0.63-0.04c-0.16-0.01-0.31-0.02-0.46-0.05c-0.09-0.01-0.17-0.02-0.25-0.03c-0.17-0.02-0.35-0.05-0.52-0.08
		c-0.21-0.03-0.41-0.07-0.61-0.12c-0.2-0.04-0.4-0.09-0.6-0.14c-0.2-0.05-0.4-0.1-0.6-0.17c-1.77-0.53-3.42-1.4-4.86-2.53
		c-0.22-0.17-0.44-0.35-0.64-0.54c-0.24-0.21-0.48-0.43-0.7-0.65c-0.02-0.01-0.02-0.02-0.03-0.03c-0.21-0.21-0.42-0.44-0.62-0.67
		c-0.02-0.02-0.04-0.04-0.06-0.06c-0.19-0.21-0.37-0.44-0.55-0.66c-0.02-0.02-0.03-0.04-0.04-0.06c-0.2-0.25-0.39-0.52-0.56-0.79
		c-0.18-0.27-0.36-0.55-0.52-0.83l-0.01-0.01c-0.19-3.13,0.99-6.22,3.15-8.81c2.53-3.03,6.41-5.38,11.04-6.34
		c4.54-0.94,8.95-0.37,12.45,1.32c0.25,1.02,0.49,2.06,0.73,3.08C332.57,210.38,332.05,213.89,330.54,216.89z"/>
	<path class="st1" d="M304.37,217.6c-0.7-1.22-1.24-2.57-1.57-4.01c-15.48-66.55-50.17-130.7-100.34-185.51
		c-3.38-3.7-4.54-8.64-3.55-13.2c53.15,56.63,90.51,123.06,108.13,192.37c0.14,0.53,0.29,1.05,0.48,1.55
		C305.36,211.38,304.18,214.47,304.37,217.6z"/>
	<g>
		<path d="M304.37,217.6c-1.25-4.54,1.35-9.54,4.91-12.45c5.92-4.89,15.44-6.07,21.74-1.38c-2.92-0.7-5.76-0.86-8.54-0.59
			C314.36,204.07,305.81,208.89,304.37,217.6L304.37,217.6z"/>
	</g>
	<path class="st5" d="M196.01,64.05c15.15,10.23,8.44,23.58-1.79,38.73c-10.23,15.15-20.11,26.36-35.26,16.13
		s-29.83-38.03-19.6-53.18C149.58,50.58,180.86,53.82,196.01,64.05z"/>
	<path class="st1" d="M195.36,97.66c-11.25,16.66-22.11,28.99-38.78,17.74c-3.63-2.45-7.23-5.82-10.53-9.75
		c3.82,5.47,8.35,10.17,12.93,13.26c15.15,10.23,25.03-0.98,35.26-16.13c5.13-7.6,9.38-14.75,10.42-21.28
		C202.52,86.62,199.16,92.03,195.36,97.66z"/>
	<path class="st5" d="M245.9,184.44c-25.38,7.23-46.05,15.3-52.64,4.25c-6.59-11.05,13.74-35.31,28.79-44.27
		c15.04-8.97,21.04-0.4,27.63,10.65C256.26,166.12,262.9,179.59,245.9,184.44z"/>
	<path class="st1" d="M255.52,166.9c0.87,6.04-1.5,11.28-10.9,13.96c-23.53,6.7-43.11,14.1-51.7,7.17c0.11,0.23,0.21,0.45,0.34,0.67
		c6.59,11.05,27.26,2.98,52.64-4.25C257.04,181.26,258.02,174.38,255.52,166.9z"/>
	<path class="st5" d="M157.6,184.23c-3.95,13.82-17.66,26.25-25.58,29.15c-9.02,3.3-27.27-13.39-23.96-29.15
		c3.54-16.85,15.27-20.98,24.87-20.98S162.03,168.75,157.6,184.23z"/>
	<path class="st1" d="M154.94,171.49c1.4,2.71,1.81,5.99,0.69,9.91c-3.95,13.82-17.66,26.25-25.58,29.15
		c-5.04,1.84-12.95-2.55-18.38-9.53c5.31,8.57,14.66,14.43,20.34,12.35c7.92-2.9,21.63-15.33,25.58-29.15
		C159.14,178.83,157.78,174.65,154.94,171.49z"/>
	<path class="st5" d="M84.14,200.62c-2.1,14.44-14.03,14.24-28.46,12.14S29.75,207.44,31.86,193s17-34.63,31.44-32.53
		S86.24,186.18,84.14,200.62z"/>
	<path class="st1" d="M66.8,161.45c10.75,6.62,16.68,25.6,14.89,37.91c-2.1,14.44-14.03,14.24-28.46,12.14
		c-5.71-0.83-10.95-1.84-15.08-3.64c4.39,2.62,10.62,3.89,17.53,4.9c14.44,2.1,26.36,2.3,28.46-12.14
		C86.07,187.39,79.08,166.49,66.8,161.45z"/>
	<g>
		<path d="M204.66,81.49c-2.33,6.47-5.97,12.4-9.7,18.14c-6.98,10.81-18.57,26.12-33.28,19.4c-6.5-2.88-11.51-7.95-15.63-13.38
			c3.53,3.7,7.33,7.15,11.72,9.74c12.3,7.65,21.6,1.46,29.72-8.53C193.8,98.86,199.96,90.57,204.66,81.49L204.66,81.49z"/>
	</g>
	<path class="st2" d="M139.73,67.98c7.01-10.39,22.69-13.2,37.84-11.26c-14.69-3.08-31.29-1.26-38.22,9.01
		c-2.57,3.81-3.57,8.42-3.38,13.36C136.34,75.02,137.53,71.25,139.73,67.98z"/>
	<g>
		<path d="M78.31,176.62c4.8,8.18,7.46,23.07,0.4,30.62C83.14,198,80.43,186.21,78.31,176.62L78.31,176.62z"/>
	</g>
	<path class="st2" d="M32.67,197.09c1.99-13.65,13.8-31.72,27.17-36.7c-13.28,1.17-26.05,19.32-27.99,32.6
		c-0.47,3.25-0.25,5.93,0.53,8.16C32.37,199.89,32.45,198.54,32.67,197.09z"/>
	<g>
		<path d="M148.06,195.71c-3.3,6.23-13.91,17.05-21.54,15.69c-1.33-0.27-2.57-0.78-3.69-1.46c2.53,0.57,5.15,0.81,7.25-0.25
			c1.11-0.53,2.21-1.12,3.26-1.81C138.75,204.45,143.39,200.11,148.06,195.71L148.06,195.71z"/>
	</g>
	<path class="st2" d="M108.81,185.98c3.78-18,16.3-22.4,26.56-22.4c0.91,0,1.91,0.05,2.97,0.15c-1.96-0.32-3.81-0.47-5.4-0.47
		c-9.61,0-21.34,4.13-24.87,20.98c-0.84,3.99-0.29,8.04,1.14,11.81C108.33,192.76,108.1,189.35,108.81,185.98z"/>
	<g>
		<path d="M217.71,188.52c-7.18,3.02-18.69,5.77-24.88-0.4c0,0,0.21-0.17,0.21-0.17l0.21,0.73c-0.19-0.27-0.63-0.82-0.82-1.09
			C200.24,191.94,209.31,188.79,217.71,188.52L217.71,188.52z"/>
	</g>
	<g>
		<path d="M255.52,166.9c2.86,10.51-6.67,14.36-15.18,16.02c-2.64,0.62-5.31,1.18-8.03,1.54c2.49-1.16,5.03-2.13,7.59-3.04
			C247.81,178.82,255.69,177.01,255.52,166.9L255.52,166.9z"/>
	</g>
	<path class="st2" d="M221.32,146.74c16.25-9.69,22.73-0.43,29.85,11.51c1.11,1.86,2.21,3.78,3.23,5.71c-1.3-3-3.01-6.02-4.72-8.89
		c-6.59-11.05-12.58-19.62-27.63-10.65c-9.05,5.39-20,16.31-25.87,26.57C202.83,161.32,212.85,151.78,221.32,146.74z"/>
	<g>
		<path d="M275.94,124.42c14.82,26.25,25.37,54.89,31.59,84.37C298.66,180.04,288.28,151.87,275.94,124.42L275.94,124.42z"/>
	</g>
	<g>
		<path d="M209.31,26.31c13.43,13.16,25.16,28.1,34.68,44.32C232.59,56.48,220.3,40.79,209.31,26.31L209.31,26.31z"/>
	</g>
	<path class="st2" d="M221.51,10.8c39.38,43.44,70.99,91.62,93.69,142.31C295.23,101.13,264.41,51.73,224.39,8
		c-4.91-5.37-12.85-6.29-18.81-2.58C211.27,4.39,217.34,6.2,221.51,10.8z"/>
	
		<ellipse transform="matrix(0.7071 -0.7071 0.7071 0.7071 -61.0333 125.0042)" class="st6" cx="120.38" cy="136.18" rx="7.06" ry="4.46"/>
	
		<ellipse transform="matrix(0.9435 -0.3314 0.3314 0.9435 -28.7015 86.8704)" class="st6" cx="240.35" cy="127.59" rx="6.29" ry="4.1"/>
	
		<ellipse transform="matrix(0.9435 -0.3314 0.3314 0.9435 -15.415 77.7515)" class="st6" cx="220.26" cy="84.07" rx="5.42" ry="4.11"/>
	
		<ellipse transform="matrix(0.8426 -0.5386 0.5386 0.8426 -36.136 125.2485)" class="st6" cx="196.18" cy="124.44" rx="7.06" ry="4.46"/>
	
		<ellipse transform="matrix(0.7071 -0.7071 0.7071 0.7071 -81.5892 179.0626)" class="st6" cx="175.35" cy="188.02" rx="7.06" ry="4.46"/>
	
		<ellipse transform="matrix(0.7071 -0.7071 0.7071 0.7071 -51.6221 158.8454)" class="st6" cx="165.93" cy="141.74" rx="5.56" ry="3.97"/>
	
		<ellipse transform="matrix(0.9929 -0.1189 0.1189 0.9929 -19.4639 33.0306)" class="st6" cx="267.1" cy="179.64" rx="5.56" ry="3.97"/>
	
		<ellipse transform="matrix(0.7071 -0.7071 0.7071 0.7071 -83.2147 105.7499)" class="st6" cx="86.04" cy="153.32" rx="5.56" ry="3.97"/>
	
		<ellipse transform="matrix(0.7071 -0.7071 0.7071 0.7071 -101.4777 123.9326)" class="st6" cx="98.86" cy="184.46" rx="5.56" ry="3.97"/>
	
		<ellipse transform="matrix(0.3197 -0.9475 0.9475 0.3197 -189.5635 186.1468)" class="st6" cx="34.85" cy="225.08" rx="5.56" ry="3.97"/>
	<g>
		<path class="st0" d="M32.33,247.98c1.38,2.72,2.8,5.49,4.98,7.61c2.18,2.13,5.3,3.54,8.28,2.91c2.34-0.5,4.58-2.19,6.89-1.57
			c3.13,0.84,3.98,5.3,6.99,6.51c3.58,1.45,7.22-2.57,11.07-2.35c3.49,0.2,7.12,3.74,9.92,1.65c1.75-1.31,1.6-3.92,1.56-6.11
			c-0.09-4.04,0.77-8.06,1.94-11.93c2.89-9.6,7.76-18.6,14.19-26.29"/>
		<g>
			<g>
				<path d="M98.14,218.42c0,0-0.22,0.3-0.64,0.86c-0.43,0.56-1.03,1.41-1.8,2.51c-1.51,2.2-3.61,5.47-5.72,9.73
					c-2.11,4.26-4.24,9.54-5.76,15.6c-0.74,3.02-1.27,6.25-1.17,9.57c0.02,0.85,0.07,1.76-0.01,2.72c-0.08,0.95-0.26,2.01-0.86,3.01
					c-0.62,1-1.66,1.75-2.85,1.98c-1.19,0.23-2.29-0.03-3.22-0.33c-1.87-0.63-3.43-1.51-4.95-1.8c-1.44-0.31-2.93,0.18-4.48,0.83
					c-1.55,0.63-3.16,1.48-5.13,1.64c-0.98,0.07-2.02-0.15-2.89-0.62c-0.88-0.47-1.54-1.14-2.08-1.8c-1.07-1.33-1.8-2.68-2.74-3.62
					c-0.92-0.96-2.05-1.29-3.29-1.06c-1.24,0.22-2.48,0.82-3.79,1.21c-1.32,0.43-2.76,0.48-4,0.23c-2.52-0.51-4.42-1.91-5.76-3.31
					c-1.34-1.43-2.2-2.86-2.85-4.04c-0.64-1.18-1.08-2.13-1.38-2.77c-0.29-0.64-0.45-0.98-0.45-0.98s0.18,0.32,0.53,0.94
					c0.35,0.61,0.86,1.52,1.59,2.64c0.73,1.11,1.68,2.45,3.04,3.72c1.35,1.24,3.22,2.41,5.46,2.73c1.12,0.15,2.26,0.05,3.42-0.39
					c1.18-0.41,2.38-1.09,3.91-1.44c0.76-0.16,1.64-0.22,2.49,0.02c0.86,0.22,1.63,0.72,2.24,1.29c1.23,1.16,2.02,2.55,2.98,3.64
					c0.95,1.13,2.08,1.77,3.43,1.64c1.37-0.13,2.85-0.88,4.45-1.59c0.81-0.35,1.67-0.7,2.63-0.93c0.94-0.23,2.05-0.3,3.06-0.1
					c2,0.39,3.64,1.32,5.23,1.84c0.79,0.26,1.54,0.39,2.13,0.27c0.59-0.11,1.12-0.48,1.45-0.99c0.68-1.09,0.64-2.84,0.61-4.54
					c-0.05-3.59,0.61-6.98,1.47-10.08c1.76-6.18,4.19-11.45,6.57-15.65c2.39-4.2,4.73-7.33,6.41-9.43c0.85-1.04,1.52-1.84,2-2.36
					C97.89,218.7,98.14,218.42,98.14,218.42z"/>
			</g>
		</g>
	</g>
	<g>
		<path class="st0" d="M106.71,221.79c1.28,4.47,6.93,5.71,11.56,6.04c4.63,0.33,10.24,1.19,11.98,5.5c1.01,2.5,0.34,5.55,1.78,7.83
			c1.38,2.18,4.22,2.9,6.1,4.66c2.48,2.31,2.95,6.03,3.06,9.41c0.11,3.39,0.06,7,1.89,9.86s6.38,4.21,8.6,1.65
			c1.12-1.3,1.3-3.14,1.37-4.86c0.24-6.11-0.29-12.24-1.58-18.22c-0.76-3.55-1.75-7.42-0.09-10.65c1.79-3.49,5.97-4.86,9.65-6.21
			c7.19-2.62,13.93-6.31,20.65-9.97c7.64-4.17,15.84-8.97,18.98-17.09"/>
		<g>
			<g>
				<path d="M200.65,199.74c0,0-0.22,0.55-0.65,1.59c-0.49,1.01-1.26,2.51-2.59,4.21c-1.32,1.7-3.2,3.58-5.61,5.47
					c-2.42,1.88-5.37,3.75-8.7,5.65c-3.33,1.9-6.96,3.98-10.97,6.07c-2,1.04-4.11,2.07-6.32,3.05c-2.19,1-4.57,1.87-6.89,2.77
					c-2.29,0.91-4.59,2.03-6.02,3.88c-1.45,1.84-1.64,4.39-1.22,6.98c0.2,1.3,0.5,2.63,0.81,4.01c0.3,1.39,0.57,2.79,0.79,4.22
					c0.45,2.85,0.74,5.77,0.84,8.73c0.05,1.48,0.06,2.95,0.03,4.41c-0.05,1.44-0.04,2.96-0.53,4.55c-0.25,0.79-0.65,1.59-1.28,2.23
					c-0.6,0.67-1.43,1.14-2.27,1.37c-1.7,0.45-3.39,0.1-4.78-0.59c-1.41-0.67-2.63-1.83-3.36-3.19c-0.73-1.32-1.12-2.75-1.34-4.12
					c-0.43-2.77-0.24-5.41-0.45-7.82c-0.2-2.41-0.77-4.75-2.18-6.36c-1.37-1.62-3.71-2.35-5.53-4.06c-0.92-0.85-1.55-2.06-1.8-3.2
					c-0.27-1.15-0.31-2.24-0.41-3.26c-0.09-1.02-0.22-1.98-0.56-2.82c-0.33-0.85-0.87-1.58-1.52-2.18c-1.31-1.21-3.01-1.86-4.62-2.3
					c-1.63-0.42-3.23-0.64-4.73-0.79c-3.04-0.25-5.67-0.81-7.65-1.71c-1.99-0.89-3.22-2.16-3.78-3.13c-0.27-0.5-0.45-0.89-0.52-1.17
					c-0.09-0.27-0.14-0.41-0.14-0.41s0.05,0.14,0.16,0.41c0.09,0.28,0.29,0.65,0.58,1.13c0.61,0.93,1.86,2.1,3.84,2.87
					c1.97,0.79,4.55,1.21,7.57,1.34c1.53,0.09,3.16,0.25,4.89,0.62c1.7,0.4,3.56,1,5.13,2.35c0.78,0.67,1.46,1.53,1.89,2.54
					c0.44,1.01,0.62,2.1,0.75,3.15c0.23,2.1,0.39,4.22,1.94,5.52c0.75,0.67,1.71,1.21,2.73,1.79c1.01,0.58,2.12,1.25,3.04,2.24
					c1.83,2.01,2.49,4.73,2.76,7.3c0.27,2.62,0.13,5.2,0.57,7.67c0.21,1.23,0.57,2.41,1.17,3.45c0.56,1.02,1.43,1.81,2.5,2.32
					c1.05,0.52,2.28,0.71,3.29,0.42c1.02-0.27,1.73-1.08,2.08-2.21c0.36-1.14,0.38-2.52,0.41-3.95c0.03-1.42,0.02-2.85-0.03-4.29
					c-0.1-2.87-0.37-5.71-0.79-8.48c-0.21-1.38-0.46-2.75-0.74-4.1c-0.29-1.36-0.59-2.74-0.79-4.16c-0.19-1.42-0.28-2.89-0.05-4.38
					c0.23-1.48,0.84-2.93,1.76-4.11c0.93-1.16,2.09-2.06,3.28-2.73c1.19-0.69,2.42-1.2,3.63-1.65c9.58-3.19,17.52-7.6,24.31-11.13
					c3.38-1.78,6.35-3.51,8.81-5.25c2.45-1.76,4.38-3.52,5.76-5.13c1.39-1.61,2.23-3.05,2.77-4.03
					C200.4,200.28,200.65,199.74,200.65,199.74z"/>
			</g>
		</g>
	</g>
</g>
</svg>
