<svg xmlns="http://www.w3.org/2000/svg" viewBox="0 0 387.92 94.08"><defs><style>.cls-1{fill:#dde2fa;}.cls-2{fill:#e7ebfc;}</style></defs><g id="Capa_2" data-name="Capa 2"><g id="AstraZeneca"><path class="cls-1" d="M12.32,75.31l6.43-17.24,6,17.38H12.32ZM31.06,92.83H37L21.62,51.09H15.87L0,92.83H5.88L10.54,80H26.41Zm27.78-8.9c0,3.42-2.73,5.2-7.52,5.2-3.84,0-6.3-1.09-7.8-3.56l-5.61,1c2.18,4.52,6.7,6.57,13.13,6.57,8.76,0,13.28-4.79,13.28-10,0-6.57-6.16-8.35-13.14-9.85-3.42-.69-7.39-1.92-7.39-4.93,0-2.19,2.05-4.65,6.29-4.65s6.85,2.87,7.26,4.1l4.92-2c-2.32-4.38-6.84-6-11.49-6-7.39,0-12.18,3.56-12.18,9.31,0,6.56,5.61,7.8,11.08,9C54.33,79.28,58.84,80.37,58.84,83.93ZM76.08,51.09l-5.47,2.33v7.66H65.55v4.38h5.06V85.85C70.47,90,70.47,93,76.77,93a36.82,36.82,0,0,0,5.2-.54V88.17a16.46,16.46,0,0,1-3.42.69c-2.33,0-2.33-1.64-2.33-5.34V65.46H82V61.08H76.22v-10Zm10.54,10V92.83H92V78.18c0-2.73-.14-5.88,1.37-8.21,1.78-2.87,4.24-3.83,9.58-4V60.53c-2.19.14-7.8.14-10.81,6.16V61.08Zm47.62-10v5.2h23.81l-23.67,31.2V93H164.9V87.9H140.67l23.68-31.47v-5.2H134.24Zm64,10V92.83h5.33V74.76c0-2.32,0-4.79,2.33-7.11a8.27,8.27,0,0,1,6-2.47c2.87,0,5.88,1.37,6.84,4.38.28,1.1.28,2.06.28,5.2V92.69h5.33V74.08a21.92,21.92,0,0,0-.55-6.43c-1.5-5.2-6.43-7.26-10.4-7.26A10.89,10.89,0,0,0,203.62,66V61.22h-5.33Zm82.65,24.08c-1.1,2.19-3.15,4.11-7.39,4.11-3.56,0-9.58-2.19-9.58-12.73,0-2.87.55-12.72,9.31-12.72a7.57,7.57,0,0,1,7.38,4.51l4.93-2C282.58,61.22,277,60,273,60,262.88,60,258,68.06,258,77.09c0,7.8,4.24,16.42,15.46,16.42,6.43,0,10.13-3.15,12-6.29ZM172.56,73.67h16.83c-.41-8.35-5.2-9.72-8.48-9.72C176.39,64,173.24,67.24,172.56,73.67Zm21.21,13.14c-1.78,3.14-5.34,6.56-12.18,6.56-9.3,0-14.78-6.29-14.78-17,0-11.91,7.8-16.43,14.51-16.43,5.88,0,11.35,3.29,13.27,11.23a31.36,31.36,0,0,1,.55,6.43H172.42c-.13,5.33,2.05,12,9.58,11.9A7.65,7.65,0,0,0,188.57,86Zm39.41-13.14H250c-.41-8.35-5.2-9.72-8.48-9.72C236.87,64,233.73,67.24,233.18,73.67Zm21.07,13.14c-1.78,3.14-5.33,6.56-12.18,6.56-9.3,0-14.77-6.29-14.77-17C227.3,64.5,235.1,60,241.8,60c5.89,0,11.36,3.29,13.27,11.23a31.36,31.36,0,0,1,.55,6.43H232.77c-.14,5.33,2,12,9.58,11.9A7.65,7.65,0,0,0,248.92,86Zm60.63,6h-5.62a28.73,28.73,0,0,1-.68-4.66c-1.64,1.65-4.65,5.07-10.67,5.07s-10.68-3.7-10.68-9a8.44,8.44,0,0,1,1.37-4.79c1.78-2.74,5.2-4.79,14.64-5.61l5.07-.42v-.82c0-3.28,0-8.75-7.12-8.75-4.38,0-6,2.19-6.43,4.1l-4.93-2c.14-.14.14-.41.28-.55,1.91-3.42,5.61-5.61,10.94-5.61,2.88,0,6.71.68,9.17,2.74,3.56,2.73,3.42,7.93,3.42,7.93l.28,16.29C313.92,86.81,314.19,91.46,314.88,92.83Zm-7.39-8.76c.82-1.78.82-2.46.82-7.12A81.67,81.67,0,0,0,300,78.46c-5.88,1.23-6.84,3.56-6.84,5.75,0,2.6,2.05,4.65,6,4.65C302.83,88.86,306,87.35,307.49,84.07ZM130.55,92.83h-5.48a28.73,28.73,0,0,1-.68-4.66c-1.64,1.65-4.65,5.07-10.67,5.07s-10.81-3.7-10.81-9a8.51,8.51,0,0,1,1.36-4.79c1.78-2.74,5.2-4.79,14.65-5.61l5.06-.42v-.82c0-3.28,0-8.75-7.12-8.75-4.51,0-6,2.19-6.43,4.1l-4.92-2c.13-.14.13-.41.27-.55,1.92-3.42,5.61-5.61,11-5.61,2.87,0,6.7.68,9.17,2.74,3.55,2.73,3.42,7.93,3.42,7.93l.13,16.29C129.59,86.81,129.86,91.46,130.55,92.83Zm-7.25-8.76c.82-1.78.82-2.46.82-7.12a81.67,81.67,0,0,0-8.35,1.51c-5.89,1.23-6.84,3.56-6.84,5.75,0,2.6,2,4.65,6,4.65C118.51,88.86,121.65,87.35,123.3,84.07Z"/><path class="cls-2" d="M349.5,66.14,347,67.78c-9.58-5.33-30.1-15.6-31.88-16.42S310,49,310.36,45.89c.55-4.38,8.35-14.1,11.63-18.2C339.78,6.07,347.72-.64,352.92.05c5.61.68,8.76,6.57,9.17,33.66q-4.72-1.44-10.27-2.87c-.27-4-1.09-9.86-1.37-11.91-.27-2.33-.82-3.15-1.64-3.28-1.09-.14-3.69,2.32-6,4.79-1.09,1.09-4.1,4.1-7.39,7.52-2.74-.13-4.65.41-5.61,1.78-.82,1.1-1,2.6-.55,4.52l-4.38,4.38c-3.69,3.69-7.66,6.7-7.8,8.21-.13,1.23,1.65,2.46,4.38,4.1C327.74,54.37,343.75,63.13,349.5,66.14Zm24.9-27.09c-6.29-2.19-21.76-7.94-38-10.13-5.61-.68-7.8,1.23-5.61,6.57s8.21,14.09,14.37,20.8,12.86,8.35,15.05-1.78c.14-.41.14-.68.27-1.09a53.86,53.86,0,0,0,1.1-7.39c-2.74-1.24-5.89-2.6-8.9-3.84.14,2.33.41,6.44.55,9.45v1.09c.14,5.06-1.5,5.06-4.38,3-3.28-2.32-13.55-15.87-14.78-21.89,0-.41.14-.41.28-.28s.13,0,.27.14h0c2.33,1,10,4,17.79,7.25,3.15,1.37,6.29,2.6,9,4s5.2,2.46,7.12,3.42c3.42,1.78,4.65,3,3.28,4.52-7,7.11-31.61,17.24-40.09,29.83l-.14.14c-.14.13-.14.27-.27.41a.13.13,0,0,1-.14.13,12.87,12.87,0,0,0-1.23,3.7c-.41,2.74,1.09,5.2,5.06,6.29a19.35,19.35,0,0,0,3.29.69H339c7.53.41,27.23-4,33.12-6.57,6.15-2.74,4.37-5.47,2.6-6.84-1.37-1.1-8.21-4.93-11.5-6.71a15.71,15.71,0,0,0-2.46,1.64c5.61,3.43,7.93,5.2,9.3,6.16.55.41.28.82-.54,1h-.55c-5.34.41-15.6,1.09-20.39,1.37-.69,0-1.51.14-1.92.14,1.23-1.1,2.47-2.06,3.15-2.6C360,74.35,377.14,64.23,382.2,59.85,386,56.43,396.16,46.57,374.4,39.05Z"/></g></g></svg>