<svg xmlns="http://www.w3.org/2000/svg" viewBox="0 0 294.44 69.37"><defs><style>.cls-1{fill:#d5daea;}.cls-2{fill:#d6daea;}.cls-3{fill:#d6dbeb;}.cls-4{fill:#dfe2ee;}.cls-5{fill:#dfe3ef;}.cls-6{fill:#e3e6f1;}.cls-7{fill:#e7eaf3;}.cls-8{fill:#eaecf4;}.cls-9{fill:#eef0f7;}.cls-10{fill:#f0f2f8;}.cls-11{fill:#d8dceb;}</style></defs><g id="Capa_2" data-name="Capa 2"><g id="Moderna"><path class="cls-1" d="M280.5,65.12h-4.35c-1,0-1.53.74-1.53,2.16s.53,2.09,1.53,2.09h16.69c1.06,0,1.6-.75,1.6-2.09s-.54-2.16-1.6-2.16Z"/><path class="cls-2" d="M255.05,65.12h-4.34c-1,0-1.57.74-1.57,2.16s.59,2.09,1.57,2.09h16.67c1.05,0,1.57-.75,1.57-2.09s-.52-2.16-1.57-2.16Z"/><path class="cls-2" d="M231,65.12h-4.34c-1.06,0-1.53.74-1.53,2.16s.47,2.09,1.53,2.09H243.3c1.06,0,1.59-.75,1.59-2.09s-.53-2.16-1.59-2.16Z"/><path class="cls-2" d="M205.5,65.12h-4.31c-1.06,0-1.6.74-1.6,2.16s.54,2.09,1.6,2.09h16.63c1.07,0,1.59-.75,1.59-2.09s-.52-2.16-1.59-2.16Z"/><path class="cls-3" d="M180,65.12H175.7c-1,0-1.58.74-1.58,2.16s.53,2.09,1.58,2.09h16.64c1.06,0,1.59-.75,1.59-2.09s-.53-2.16-1.59-2.16Z"/><path class="cls-4" d="M156,65.12h-4.31c-1.07,0-1.6.74-1.6,2.16s.53,2.09,1.6,2.09h16.63c1.06,0,1.59-.75,1.59-2.09s-.53-2.16-1.59-2.16Z"/><path class="cls-5" d="M130.48,65.12h-4.32c-1.06,0-1.59.74-1.59,2.16s.53,2.09,1.59,2.09H142.8c1.11,0,1.59-.75,1.59-2.09s-.48-2.16-1.59-2.16Z"/><path class="cls-6" d="M105,65.12h-4.31c-1.07,0-1.6.74-1.6,2.16s.53,2.09,1.6,2.09h16.68c1,0,1.54-.75,1.54-2.09s-.53-2.16-1.54-2.16Z"/><path class="cls-7" d="M80.94,65.12H76.61c-1.06,0-1.58.74-1.58,2.16s.52,2.09,1.58,2.09H93.26c1,0,1.58-.75,1.58-2.09s-.53-2.16-1.58-2.16Z"/><path class="cls-8" d="M55.42,65.12H51.13c-1.05,0-1.59.74-1.59,2.16s.54,2.09,1.59,2.09H67.78c1.06,0,1.59-.75,1.59-2.09s-.53-2.16-1.59-2.16Z"/><path class="cls-9" d="M30,65.12H25.65c-1.06,0-1.58.74-1.58,2.16s.52,2.09,1.58,2.09H42.3c1.06,0,1.58-.75,1.58-2.09s-.52-2.16-1.58-2.16Z"/><path class="cls-10" d="M5.88,65.12H1.54C.48,65.12,0,65.86,0,67.28s.48,2.09,1.54,2.09H18.23c1.06,0,1.59-.75,1.59-2.09s-.53-2.16-1.59-2.16Z"/><path class="cls-11" d="M0,13.66H4.53v6.23a17.13,17.13,0,0,1,4.82-5,13.48,13.48,0,0,1,7.17-2.13,12.16,12.16,0,0,1,4.86,1,10,10,0,0,1,3.72,2.76,15,15,0,0,1,2.51,4.83,17.58,17.58,0,0,1,5.61-6.42,13.22,13.22,0,0,1,7.27-2.18,11,11,0,0,1,6.41,1.88,11.64,11.64,0,0,1,4.16,5.27c.9,2.23,1.32,5.61,1.32,10.05v19.6H47.8V29.94c0-3.82-.28-6.47-.8-7.93a7.17,7.17,0,0,0-2.78-3.47,8,8,0,0,0-4.63-1.3,10.1,10.1,0,0,0-6,2,11.43,11.43,0,0,0-4,5.25c-.81,2.23-1.23,5.89-1.23,11v14H23.88V31.2c0-4.35-.23-7.29-.75-8.85a7.6,7.6,0,0,0-2.79-3.72,8,8,0,0,0-4.67-1.39,9.76,9.76,0,0,0-5.85,1.93,11.33,11.33,0,0,0-4,5.16q-1.27,3.27-1.28,10V49.54H0Z"/><path class="cls-11" d="M79.3,17.34a12.86,12.86,0,0,0-9.74,4.3,14.61,14.61,0,0,0-4.08,10.42,15.36,15.36,0,0,0,1.85,7.35,13,13,0,0,0,5,5.23,13.75,13.75,0,0,0,13.81,0,13.09,13.09,0,0,0,5-5.23,15.36,15.36,0,0,0,1.85-7.35A14.61,14.61,0,0,0,89,21.64a12.84,12.84,0,0,0-9.69-4.3m0-4.59a17.35,17.35,0,0,1,13.49,6.06A19.14,19.14,0,0,1,97.68,32,19,19,0,0,1,92.5,45.23,17,17,0,0,1,79.3,51a17,17,0,0,1-13.25-5.73A19,19,0,0,1,60.87,32a19.19,19.19,0,0,1,4.89-13.11A17.27,17.27,0,0,1,79.3,12.75"/><path class="cls-11" d="M123.42,17.43a13.56,13.56,0,0,0-7,1.9,13.87,13.87,0,0,0-5.1,5.39,14.85,14.85,0,0,0,0,14.57,14.18,14.18,0,0,0,5.14,5.44,13.69,13.69,0,0,0,7,2,14.34,14.34,0,0,0,7.09-2,13.75,13.75,0,0,0,5.15-5.2,15.28,15.28,0,0,0,1.76-7.41,14.32,14.32,0,0,0-4.06-10.46,13.12,13.12,0,0,0-9.89-4.23M141.55,0V50h-4.47V43.81a20.4,20.4,0,0,1-6.38,5.35,17.61,17.61,0,0,1-7.81,1.8,17,17,0,0,1-12.81-5.59,18.87,18.87,0,0,1-5.32-13.54,18.56,18.56,0,0,1,5.37-13.33A17.26,17.26,0,0,1,123,13a16.09,16.09,0,0,1,7.86,1.9,17.48,17.48,0,0,1,6.19,5.7V0Z"/><path class="cls-11" d="M181.81,28.15a16.23,16.23,0,0,0-2.69-6,12,12,0,0,0-4.67-3.57,13.51,13.51,0,0,0-6-1.38,13,13,0,0,0-9,3.43,15.85,15.85,0,0,0-4.17,7.48Zm0,9.79,3.84,2.11a22,22,0,0,1-4.37,6.11,18,18,0,0,1-5.62,3.58A19.91,19.91,0,0,1,168.59,51c-5.8,0-10.36-2-13.64-5.82A20,20,0,0,1,150.05,32a19.45,19.45,0,0,1,4.14-12.33,17,17,0,0,1,14.18-6.89,17.52,17.52,0,0,1,14.54,7,19.93,19.93,0,0,1,4,12.44h-32.1a14.9,14.9,0,0,0,4,10.37,12.59,12.59,0,0,0,9.47,4.07,15,15,0,0,0,5.28-1,13.7,13.7,0,0,0,4.38-2.55,20.18,20.18,0,0,0,3.94-5.18"/><path class="cls-11" d="M193.93,13.66h4.76v5.26a16.83,16.83,0,0,1,4.51-4.64,8.29,8.29,0,0,1,9.13-.33l-2.45,3.9a6.49,6.49,0,0,0-2.45-.61,6.7,6.7,0,0,0-4.51,1.87,11.79,11.79,0,0,0-3.34,5.9c-.59,2-.89,6.19-.89,12.42V49.54h-4.76Z"/><path class="cls-11" d="M218,13.66h4.37v6.42a18.66,18.66,0,0,1,5.82-5.5,13.73,13.73,0,0,1,6.95-1.84,11.65,11.65,0,0,1,6.79,2,12.36,12.36,0,0,1,4.38,5.5c.95,2.32,1.41,5.89,1.41,10.81V49.54h-4.37V32.45a44.82,44.82,0,0,0-.5-8.31,9.08,9.08,0,0,0-2.93-5.36A8.77,8.77,0,0,0,234.26,17a10.58,10.58,0,0,0-7.12,2.76A13,13,0,0,0,223,26.6a52,52,0,0,0-.63,9.76V49.54H218Z"/><path class="cls-11" d="M274.88,17.24a13.61,13.61,0,0,0-7,1.91,14,14,0,0,0-5.09,5.43,14.89,14.89,0,0,0,0,14.63,14.28,14.28,0,0,0,5.12,5.49,13.67,13.67,0,0,0,7,2,14.25,14.25,0,0,0,7.1-2,13.71,13.71,0,0,0,5.15-5.24A15.47,15.47,0,0,0,288.83,32a14.67,14.67,0,0,0-4-10.53,13.3,13.3,0,0,0-9.95-4.26M293,13.68V50h-4.48V43.76a20.11,20.11,0,0,1-6.39,5.4,17.6,17.6,0,0,1-7.8,1.8,16.9,16.9,0,0,1-12.81-5.63,19,19,0,0,1-5.32-13.6,18.74,18.74,0,0,1,5.37-13.41,17.23,17.23,0,0,1,12.91-5.57,16.17,16.17,0,0,1,7.85,1.9,17.74,17.74,0,0,1,6.19,5.72V13.68Z"/></g></g></svg>