<svg xmlns="http://www.w3.org/2000/svg" viewBox="0 0 256.27 104.84"><defs><style>.cls-1{fill:#e7e9f4;}.cls-2{fill:#ecedf7;}</style></defs><g id="Capa_2" data-name="Capa 2"><g id="Pfizer"><path class="cls-1" d="M127.16,104.8l15.37-54.56S145.45,38,148.8,32a18.64,18.64,0,0,1,12.27-8.63,24.63,24.63,0,0,1,9.34.67c3.63,1.21,5.22,3.82,5.49,4.9,1.32,5.25-2.57,7.49-5.14,7.62-2.85.14-4.59-1.43-5-2.47s-.7-3.34.63-4.64a2.47,2.47,0,0,0-.2-3.29,6.73,6.73,0,0,0-5.45,1.08c-1.91,1.25-4.45,7-5,8.66-.28.93-2.78,10.92-2.78,10.92l19,.07L163.6,76.09h-9l5.88-24.6h-9.13L137,104.84Z"/><path class="cls-1" d="M139,41.33c-2.16-7.08-13.45-7.75-13.45-7.75l-14.84-.18L98.9,76.33h9.86l3.59-14a66.61,66.61,0,0,0,9-.37c9.66-1.32,13.32-5.32,13.32-5.32C136.19,54.86,141.2,48.41,139,41.33ZM126.9,52.18a10.1,10.1,0,0,1-6.48,4.37c-.75.15-1.64.51-6.38.45l5.19-19.18h4c3,.34,5.56,1.42,6.36,4.42C130.23,44.65,127.75,51.08,126.9,52.18Z"/><polygon class="cls-1" points="175.34 46.91 200.6 46.91 181.96 71.73 195.55 71.73 194.2 76.45 167.48 76.45 186.79 52.19 173.88 52.19 175.34 46.91"/><path class="cls-1" d="M225,62.41c2.25-7.75-1.57-16.06-10.44-16.06S198.36,54.21,197.8,60.5s.67,16.84,14.26,16.84a16.53,16.53,0,0,0,10.78-3.7l-2-4.83A9.49,9.49,0,0,1,211.94,72c-5.83-.89-5.72-7-5.16-9.43C209.14,62.52,225,62.41,225,62.41ZM213.74,51.07c5.95,0,3.71,7,3.71,7H207.12S207.79,51.07,213.74,51.07Z"/><path class="cls-1" d="M241.93,47h-9.1l-7.75,28.52h9.44s3-16.45,8.64-22.12c2-2,3.93-.57,4.49,1.34s3.71,3.93,6.85,1.35a5.39,5.39,0,0,0-2.35-9.21c-4.27-.9-9.44,3.15-11.46,5.84Z"/><path class="cls-2" d="M16.94,18.88,21.87,0S42,1.24,67.56,11.11s26.34,22,26.05,23.45S89.25,54,89.25,54C88.61,29.79,37.76,20.3,16.94,18.88Z"/><path class="cls-1" d="M46.8,47.14,42.06,65.82S83.36,72.17,89.25,54a17.84,17.84,0,0,0-3.09-9.46C82.81,48.31,58.85,49.38,46.8,47.14Z"/><path class="cls-1" d="M76.71,75.43,71.77,94.3S51.64,93.07,26.08,83.19-.25,61.19,0,59.74,4.39,40.28,4.39,40.28C5,64.51,55.89,74,76.71,75.43Z"/><path class="cls-2" d="M46.84,47.16l4.75-18.68s-41.31-6.34-47.2,11.8a17.81,17.81,0,0,0,3.09,9.46C10.84,46,34.79,44.92,46.84,47.16Z"/></g></g></svg>