<svg xmlns="http://www.w3.org/2000/svg" viewBox="0 0 282.37 47.5"><defs><style>.cls-1{fill:#e5e4f5;}.cls-2{fill:#f0f0f9;}</style></defs><g id="Capa_2" data-name="Capa 2"><g id="Sinovac"><polygon class="cls-1" points="42.44 1.16 42.44 6.5 42.44 41 42.44 46.34 53.99 46.34 53.99 41 53.99 6.5 53.99 1.16 42.44 1.16"/><path class="cls-1" d="M154.9,23.82c0,7.36-2,13.14-5.92,17.32s-9.53,6.21-16.6,6.21-12.7-2-16.6-6.21-5.92-10-5.92-17.32c0-7.51,2-13.28,5.92-17.47S125.31.14,132.52.14s12.71,2,16.75,6.21c3.75,4,5.63,10,5.63,17.47m-11,0q0-7.14-3-11.26a10.1,10.1,0,0,0-8.52-4.19,9.92,9.92,0,0,0-8.52,4.19q-3,4.11-3,11.26c0,4.76,1,8.37,3,11.26a10.76,10.76,0,0,0,17,0q3-4.34,3-11.26"/><polygon class="cls-2" points="190.56 1.16 202.11 1.16 186.66 46.34 173.23 46.34 157.79 1.16 169.34 1.16 179.87 33.64 190.56 1.16"/><path class="cls-1" d="M1,45.62V36.67A45.11,45.11,0,0,0,14.44,39c5.48,0,8.08-1.45,8.08-4.33a4,4,0,0,0-1.15-2.75,25.38,25.38,0,0,0-6.21-3.17c-5.92-2.46-9.82-4.62-11.69-6.35A11.73,11.73,0,0,1,0,13.71C0,9.24,1.73,5.77,5.2,3.47,8.52,1.15,13,0,18.48,0A69.22,69.22,0,0,1,31.9,1.59V9.53A48.46,48.46,0,0,0,19.78,7.65c-5.05,0-7.65,1.45-7.65,4.19a3.24,3.24,0,0,0,1.58,2.6,65.1,65.1,0,0,0,7.08,3.46c5.48,2.46,9.24,4.62,11.11,6.35a11.31,11.31,0,0,1,3.32,8.38,12.55,12.55,0,0,1-6.35,11.26c-3.46,2.16-7.94,3.17-13.42,3.17A53.29,53.29,0,0,1,1,45.62"/><polygon class="cls-1" points="62.65 46.34 62.65 1.16 77.09 1.16 93.11 31.33 93.11 1.16 102.06 1.16 102.06 46.34 88.49 46.34 71.6 15.59 71.6 46.34 62.65 46.34"/><polygon class="cls-2" points="209.76 46.34 198.21 46.34 213.66 1.16 227.08 1.16 242.53 46.34 230.98 46.34 220.3 13.86 209.76 46.34"/><path class="cls-2" d="M281.94,37.53a50.2,50.2,0,0,1-10.83,1.59c-4.76,0-8.52-1.44-11.26-4.18-2.89-2.75-4.19-6.5-4.19-11.12a15.4,15.4,0,0,1,4.19-11.12c2.74-2.88,6.35-4.33,11-4.33a36.47,36.47,0,0,1,11.26,2V2.17A24.32,24.32,0,0,0,277.61,1a37.72,37.72,0,0,0-7.37-.72q-11.69,0-18.62,6.5c-4.62,4.33-6.93,10.1-6.93,17.46s2.31,13,6.93,17,10.83,6.21,18.91,6.21a35.6,35.6,0,0,0,6.93-.58,50.07,50.07,0,0,0,4.91-1V37.53Z"/></g></g></svg>